<?xml version="1.0" encoding="UTF-8" standalone="no"?>
<!DOCTYPE svg PUBLIC "-//W3C//DTD SVG 1.1//EN"
 "http://www.w3.org/Graphics/SVG/1.1/DTD/svg11.dtd">
<!-- Generated by graphviz version 2.38.0 (20140413.2041)
 -->
<!-- Title: structDiagram Pages: 1 -->
<svg width="628pt" height="567pt"
 viewBox="0.00 0.00 628.00 566.50" xmlns="http://www.w3.org/2000/svg" xmlns:xlink="http://www.w3.org/1999/xlink">
<g id="graph0" class="graph" transform="scale(1 1) rotate(0) translate(4 562.5)">
<title>structDiagram</title>
<g id="a_graph0"><a xlink:href="http://www.github.com/paulcager/typegraph" xlink:title="\nGenerated by typegraph: debug/elf">
<polygon fill="#f8f8f8" stroke="none" points="-4,4 -4,-562.5 624,-562.5 624,4 -4,4"/>
<text text-anchor="middle" x="100" y="-7.4" font-family="Helvetica,sans-Serif" font-size="12.00">Generated by typegraph: debug/elf</text>
</a>
</g>
<!-- debug/elf.Prog -->
<g id="node1" class="node"><title>debug/elf.Prog</title>
<g id="a_node1"><a xlink:title="debug/elf.Prog">
<polygon fill="#ffffff" stroke="none" points="220,-122.5 220,-198.5 402,-198.5 402,-122.5 220,-122.5"/>
<polygon fill="#e0e0ff" stroke="none" points="220,-179.5 220,-198.5 402,-198.5 402,-179.5 220,-179.5"/>
<polygon fill="none" stroke="black" points="220,-179.5 220,-198.5 402,-198.5 402,-179.5 220,-179.5"/>
<text text-anchor="start" x="288.5" y="-185.9" font-family="Helvetica,sans-Serif" font-size="12.00">elf.Prog </text>
<polygon fill="#f0f0ff" stroke="none" points="220,-160.5 220,-179.5 295,-179.5 295,-160.5 220,-160.5"/>
<polygon fill="none" stroke="black" points="220,-160.5 220,-179.5 295,-179.5 295,-160.5 220,-160.5"/>
<text text-anchor="start" x="223" y="-166.9" font-family="Helvetica,sans-Serif" font-size="12.00">ProgHeader </text>
<polygon fill="#f0f0ff" stroke="none" points="295,-160.5 295,-179.5 402,-179.5 402,-160.5 295,-160.5"/>
<polygon fill="none" stroke="black" points="295,-160.5 295,-179.5 402,-179.5 402,-160.5 295,-160.5"/>
<text text-anchor="start" x="298" y="-166.9" font-family="Helvetica,sans-Serif" font-size="12.00">ProgHeader </text>
<polygon fill="#f0f0ff" stroke="none" points="220,-141.5 220,-160.5 295,-160.5 295,-141.5 220,-141.5"/>
<polygon fill="none" stroke="black" points="220,-141.5 220,-160.5 295,-160.5 295,-141.5 220,-141.5"/>
<text text-anchor="start" x="223" y="-147.9" font-family="Helvetica,sans-Serif" font-size="12.00">ReaderAt </text>
<polygon fill="#f0f0ff" stroke="none" points="295,-141.5 295,-160.5 402,-160.5 402,-141.5 295,-141.5"/>
<polygon fill="none" stroke="black" points="295,-141.5 295,-160.5 402,-160.5 402,-141.5 295,-141.5"/>
<text text-anchor="start" x="298" y="-147.9" font-family="Helvetica,sans-Serif" font-size="12.00">io.ReaderAt </text>
<polygon fill="#f0f0ff" stroke="none" points="220,-122.5 220,-141.5 295,-141.5 295,-122.5 220,-122.5"/>
<polygon fill="none" stroke="black" points="220,-122.5 220,-141.5 295,-141.5 295,-122.5 220,-122.5"/>
<text text-anchor="start" x="223" y="-128.9" font-family="Helvetica,sans-Serif" font-size="12.00">sr </text>
<polygon fill="#f0f0ff" stroke="none" points="295,-122.5 295,-141.5 402,-141.5 402,-122.5 295,-122.5"/>
<polygon fill="none" stroke="black" points="295,-122.5 295,-141.5 402,-141.5 402,-122.5 295,-122.5"/>
<text text-anchor="start" x="298" y="-128.9" font-family="Helvetica,sans-Serif" font-size="12.00">*io.SectionReader </text>
</a>
</g>
</g>
<!-- debug/elf.ProgHeader -->
<g id="node7" class="node"><title>debug/elf.ProgHeader</title>
<g id="a_node7"><a xlink:title="debug/elf.ProgHeader">
<polygon fill="#ffffff" stroke="none" points="488,-42 488,-213 598,-213 598,-42 488,-42"/>
<polygon fill="#e0e0ff" stroke="none" points="488,-193.5 488,-212.5 598,-212.5 598,-193.5 488,-193.5"/>
<polygon fill="none" stroke="black" points="488,-193.5 488,-212.5 598,-212.5 598,-193.5 488,-193.5"/>
<text text-anchor="start" x="500.5" y="-199.9" font-family="Helvetica,sans-Serif" font-size="12.00">elf.ProgHeader </text>
<polygon fill="#f0f0ff" stroke="none" points="488,-174.5 488,-193.5 536,-193.5 536,-174.5 488,-174.5"/>
<polygon fill="none" stroke="black" points="488,-174.5 488,-193.5 536,-193.5 536,-174.5 488,-174.5"/>
<text text-anchor="start" x="491" y="-180.9" font-family="Helvetica,sans-Serif" font-size="12.00">Type </text>
<polygon fill="#f0f0ff" stroke="none" points="536,-174.5 536,-193.5 598,-193.5 598,-174.5 536,-174.5"/>
<polygon fill="none" stroke="black" points="536,-174.5 536,-193.5 598,-193.5 598,-174.5 536,-174.5"/>
<text text-anchor="start" x="539" y="-180.9" font-family="Helvetica,sans-Serif" font-size="12.00">ProgType </text>
<polygon fill="#f0f0ff" stroke="none" points="488,-155.5 488,-174.5 536,-174.5 536,-155.5 488,-155.5"/>
<polygon fill="none" stroke="black" points="488,-155.5 488,-174.5 536,-174.5 536,-155.5 488,-155.5"/>
<text text-anchor="start" x="491" y="-161.9" font-family="Helvetica,sans-Serif" font-size="12.00">Flags </text>
<polygon fill="#f0f0ff" stroke="none" points="536,-155.5 536,-174.5 598,-174.5 598,-155.5 536,-155.5"/>
<polygon fill="none" stroke="black" points="536,-155.5 536,-174.5 598,-174.5 598,-155.5 536,-155.5"/>
<text text-anchor="start" x="539" y="-161.9" font-family="Helvetica,sans-Serif" font-size="12.00">ProgFlag </text>
<polygon fill="#f0f0ff" stroke="none" points="488,-136.5 488,-155.5 536,-155.5 536,-136.5 488,-136.5"/>
<polygon fill="none" stroke="black" points="488,-136.5 488,-155.5 536,-155.5 536,-136.5 488,-136.5"/>
<text text-anchor="start" x="491" y="-142.9" font-family="Helvetica,sans-Serif" font-size="12.00">Off </text>
<polygon fill="#f0f0ff" stroke="none" points="536,-136.5 536,-155.5 598,-155.5 598,-136.5 536,-136.5"/>
<polygon fill="none" stroke="black" points="536,-136.5 536,-155.5 598,-155.5 598,-136.5 536,-136.5"/>
<text text-anchor="start" x="539" y="-142.9" font-family="Helvetica,sans-Serif" font-size="12.00">uint64 </text>
<polygon fill="#f0f0ff" stroke="none" points="488,-117.5 488,-136.5 536,-136.5 536,-117.5 488,-117.5"/>
<polygon fill="none" stroke="black" points="488,-117.5 488,-136.5 536,-136.5 536,-117.5 488,-117.5"/>
<text text-anchor="start" x="491" y="-123.9" font-family="Helvetica,sans-Serif" font-size="12.00">Vaddr </text>
<polygon fill="#f0f0ff" stroke="none" points="536,-117.5 536,-136.5 598,-136.5 598,-117.5 536,-117.5"/>
<polygon fill="none" stroke="black" points="536,-117.5 536,-136.5 598,-136.5 598,-117.5 536,-117.5"/>
<text text-anchor="start" x="539" y="-123.9" font-family="Helvetica,sans-Serif" font-size="12.00">uint64 </text>
<polygon fill="#f0f0ff" stroke="none" points="488,-98.5 488,-117.5 536,-117.5 536,-98.5 488,-98.5"/>
<polygon fill="none" stroke="black" points="488,-98.5 488,-117.5 536,-117.5 536,-98.5 488,-98.5"/>
<text text-anchor="start" x="491" y="-104.9" font-family="Helvetica,sans-Serif" font-size="12.00">Paddr </text>
<polygon fill="#f0f0ff" stroke="none" points="536,-98.5 536,-117.5 598,-117.5 598,-98.5 536,-98.5"/>
<polygon fill="none" stroke="black" points="536,-98.5 536,-117.5 598,-117.5 598,-98.5 536,-98.5"/>
<text text-anchor="start" x="539" y="-104.9" font-family="Helvetica,sans-Serif" font-size="12.00">uint64 </text>
<polygon fill="#f0f0ff" stroke="none" points="488,-79.5 488,-98.5 536,-98.5 536,-79.5 488,-79.5"/>
<polygon fill="none" stroke="black" points="488,-79.5 488,-98.5 536,-98.5 536,-79.5 488,-79.5"/>
<text text-anchor="start" x="491" y="-85.9" font-family="Helvetica,sans-Serif" font-size="12.00">Filesz </text>
<polygon fill="#f0f0ff" stroke="none" points="536,-79.5 536,-98.5 598,-98.5 598,-79.5 536,-79.5"/>
<polygon fill="none" stroke="black" points="536,-79.5 536,-98.5 598,-98.5 598,-79.5 536,-79.5"/>
<text text-anchor="start" x="539" y="-85.9" font-family="Helvetica,sans-Serif" font-size="12.00">uint64 </text>
<polygon fill="#f0f0ff" stroke="none" points="488,-60.5 488,-79.5 536,-79.5 536,-60.5 488,-60.5"/>
<polygon fill="none" stroke="black" points="488,-60.5 488,-79.5 536,-79.5 536,-60.5 488,-60.5"/>
<text text-anchor="start" x="491" y="-66.9" font-family="Helvetica,sans-Serif" font-size="12.00">Memsz </text>
<polygon fill="#f0f0ff" stroke="none" points="536,-60.5 536,-79.5 598,-79.5 598,-60.5 536,-60.5"/>
<polygon fill="none" stroke="black" points="536,-60.5 536,-79.5 598,-79.5 598,-60.5 536,-60.5"/>
<text text-anchor="start" x="539" y="-66.9" font-family="Helvetica,sans-Serif" font-size="12.00">uint64 </text>
<polygon fill="#f0f0ff" stroke="none" points="488,-41.5 488,-60.5 536,-60.5 536,-41.5 488,-41.5"/>
<polygon fill="none" stroke="black" points="488,-41.5 488,-60.5 536,-60.5 536,-41.5 488,-41.5"/>
<text text-anchor="start" x="491" y="-47.9" font-family="Helvetica,sans-Serif" font-size="12.00">Align </text>
<polygon fill="#f0f0ff" stroke="none" points="536,-41.5 536,-60.5 598,-60.5 598,-41.5 536,-41.5"/>
<polygon fill="none" stroke="black" points="536,-41.5 536,-60.5 598,-60.5 598,-41.5 536,-41.5"/>
<text text-anchor="start" x="539" y="-47.9" font-family="Helvetica,sans-Serif" font-size="12.00">uint64 </text>
</a>
</g>
</g>
<!-- debug/elf.Prog&#45;&gt;debug/elf.ProgHeader -->
<g id="edge2" class="edge"><title>debug/elf.Prog:ProgHeader&#45;&gt;debug/elf.ProgHeader</title>
<path fill="none" stroke="black" d="M403,-170.5C423.734,-170.5 445.461,-166.08 465.414,-160.073"/>
<polygon fill="black" stroke="black" points="467.299,-164.981 479.933,-155.34 464.044,-154.998 467.299,-164.981"/>
</g>
<!-- debug/elf.File -->
<g id="node2" class="node"><title>debug/elf.File</title>
<g id="a_node2"><a xlink:title="debug/elf.File">
<polygon fill="#ffffff" stroke="none" points="8,-145 8,-278 148,-278 148,-145 8,-145"/>
<polygon fill="#e0e0ff" stroke="none" points="8,-258.5 8,-277.5 148,-277.5 148,-258.5 8,-258.5"/>
<polygon fill="none" stroke="black" points="8,-258.5 8,-277.5 148,-277.5 148,-258.5 8,-258.5"/>
<text text-anchor="start" x="58" y="-264.9" font-family="Helvetica,sans-Serif" font-size="12.00">elf.File </text>
<polygon fill="#f0f0ff" stroke="none" points="8,-239.5 8,-258.5 78,-258.5 78,-239.5 8,-239.5"/>
<polygon fill="none" stroke="black" points="8,-239.5 8,-258.5 78,-258.5 78,-239.5 8,-239.5"/>
<text text-anchor="start" x="11" y="-245.9" font-family="Helvetica,sans-Serif" font-size="12.00">FileHeader </text>
<polygon fill="#f0f0ff" stroke="none" points="78,-239.5 78,-258.5 148,-258.5 148,-239.5 78,-239.5"/>
<polygon fill="none" stroke="black" points="78,-239.5 78,-258.5 148,-258.5 148,-239.5 78,-239.5"/>
<text text-anchor="start" x="81" y="-245.9" font-family="Helvetica,sans-Serif" font-size="12.00">FileHeader </text>
<polygon fill="#f0f0ff" stroke="none" points="8,-220.5 8,-239.5 78,-239.5 78,-220.5 8,-220.5"/>
<polygon fill="none" stroke="black" points="8,-220.5 8,-239.5 78,-239.5 78,-220.5 8,-220.5"/>
<text text-anchor="start" x="11" y="-226.9" font-family="Helvetica,sans-Serif" font-size="12.00">Sections </text>
<polygon fill="#f0f0ff" stroke="none" points="78,-220.5 78,-239.5 148,-239.5 148,-220.5 78,-220.5"/>
<polygon fill="none" stroke="black" points="78,-220.5 78,-239.5 148,-239.5 148,-220.5 78,-220.5"/>
<text text-anchor="start" x="81" y="-226.9" font-family="Helvetica,sans-Serif" font-size="12.00">[]*Section </text>
<polygon fill="#f0f0ff" stroke="none" points="8,-201.5 8,-220.5 78,-220.5 78,-201.5 8,-201.5"/>
<polygon fill="none" stroke="black" points="8,-201.5 8,-220.5 78,-220.5 78,-201.5 8,-201.5"/>
<text text-anchor="start" x="11" y="-207.9" font-family="Helvetica,sans-Serif" font-size="12.00">Progs </text>
<polygon fill="#f0f0ff" stroke="none" points="78,-201.5 78,-220.5 148,-220.5 148,-201.5 78,-201.5"/>
<polygon fill="none" stroke="black" points="78,-201.5 78,-220.5 148,-220.5 148,-201.5 78,-201.5"/>
<text text-anchor="start" x="81" y="-207.9" font-family="Helvetica,sans-Serif" font-size="12.00">[]*Prog </text>
<polygon fill="#f0f0ff" stroke="none" points="8,-182.5 8,-201.5 78,-201.5 78,-182.5 8,-182.5"/>
<polygon fill="none" stroke="black" points="8,-182.5 8,-201.5 78,-201.5 78,-182.5 8,-182.5"/>
<text text-anchor="start" x="11" y="-188.9" font-family="Helvetica,sans-Serif" font-size="12.00">closer </text>
<polygon fill="#f0f0ff" stroke="none" points="78,-182.5 78,-201.5 148,-201.5 148,-182.5 78,-182.5"/>
<polygon fill="none" stroke="black" points="78,-182.5 78,-201.5 148,-201.5 148,-182.5 78,-182.5"/>
<text text-anchor="start" x="81" y="-188.9" font-family="Helvetica,sans-Serif" font-size="12.00">io.Closer </text>
<polygon fill="#f0f0ff" stroke="none" points="8,-163.5 8,-182.5 78,-182.5 78,-163.5 8,-163.5"/>
<polygon fill="none" stroke="black" points="8,-163.5 8,-182.5 78,-182.5 78,-163.5 8,-163.5"/>
<text text-anchor="start" x="11" y="-169.9" font-family="Helvetica,sans-Serif" font-size="12.00">gnuNeed </text>
<polygon fill="#f0f0ff" stroke="none" points="78,-163.5 78,-182.5 148,-182.5 148,-163.5 78,-163.5"/>
<polygon fill="none" stroke="black" points="78,-163.5 78,-182.5 148,-182.5 148,-163.5 78,-163.5"/>
<text text-anchor="start" x="81" y="-169.9" font-family="Helvetica,sans-Serif" font-size="12.00">[]verneed </text>
<polygon fill="#f0f0ff" stroke="none" points="8,-144.5 8,-163.5 78,-163.5 78,-144.5 8,-144.5"/>
<polygon fill="none" stroke="black" points="8,-144.5 8,-163.5 78,-163.5 78,-144.5 8,-144.5"/>
<text text-anchor="start" x="11" y="-150.9" font-family="Helvetica,sans-Serif" font-size="12.00">gnuVersym </text>
<polygon fill="#f0f0ff" stroke="none" points="78,-144.5 78,-163.5 148,-163.5 148,-144.5 78,-144.5"/>
<polygon fill="none" stroke="black" points="78,-144.5 78,-163.5 148,-163.5 148,-144.5 78,-144.5"/>
<text text-anchor="start" x="81" y="-150.9" font-family="Helvetica,sans-Serif" font-size="12.00">[]byte </text>
</a>
</g>
</g>
<!-- debug/elf.File&#45;&gt;debug/elf.Prog -->
<g id="edge5" class="edge"><title>debug/elf.File:Progs&#45;&gt;debug/elf.Prog</title>
<path fill="none" stroke="black" d="M149,-210.5C164.748,-210.5 180.988,-208.291 196.818,-204.802"/>
<polygon fill="black" stroke="black" points="198.534,-209.786 211.84,-201.095 196.019,-199.592 198.534,-209.786"/>
</g>
<!-- debug/elf.FileHeader -->
<g id="node3" class="node"><title>debug/elf.FileHeader</title>
<g id="a_node3"><a xlink:title="debug/elf.FileHeader">
<polygon fill="#ffffff" stroke="none" points="200,-364.5 200,-554.5 422,-554.5 422,-364.5 200,-364.5"/>
<polygon fill="#e0e0ff" stroke="none" points="200,-535.5 200,-554.5 422,-554.5 422,-535.5 200,-535.5"/>
<polygon fill="none" stroke="black" points="200,-535.5 200,-554.5 422,-554.5 422,-535.5 200,-535.5"/>
<text text-anchor="start" x="271.5" y="-541.9" font-family="Helvetica,sans-Serif" font-size="12.00">elf.FileHeader </text>
<polygon fill="#f0f0ff" stroke="none" points="200,-516.5 200,-535.5 270,-535.5 270,-516.5 200,-516.5"/>
<polygon fill="none" stroke="black" points="200,-516.5 200,-535.5 270,-535.5 270,-516.5 200,-516.5"/>
<text text-anchor="start" x="203" y="-522.9" font-family="Helvetica,sans-Serif" font-size="12.00">Class </text>
<polygon fill="#f0f0ff" stroke="none" points="270,-516.5 270,-535.5 422,-535.5 422,-516.5 270,-516.5"/>
<polygon fill="none" stroke="black" points="270,-516.5 270,-535.5 422,-535.5 422,-516.5 270,-516.5"/>
<text text-anchor="start" x="273" y="-522.9" font-family="Helvetica,sans-Serif" font-size="12.00">Class </text>
<polygon fill="#f0f0ff" stroke="none" points="200,-497.5 200,-516.5 270,-516.5 270,-497.5 200,-497.5"/>
<polygon fill="none" stroke="black" points="200,-497.5 200,-516.5 270,-516.5 270,-497.5 200,-497.5"/>
<text text-anchor="start" x="203" y="-503.9" font-family="Helvetica,sans-Serif" font-size="12.00">Data </text>
<polygon fill="#f0f0ff" stroke="none" points="270,-497.5 270,-516.5 422,-516.5 422,-497.5 270,-497.5"/>
<polygon fill="none" stroke="black" points="270,-497.5 270,-516.5 422,-516.5 422,-497.5 270,-497.5"/>
<text text-anchor="start" x="273" y="-503.9" font-family="Helvetica,sans-Serif" font-size="12.00">Data </text>
<polygon fill="#f0f0ff" stroke="none" points="200,-478.5 200,-497.5 270,-497.5 270,-478.5 200,-478.5"/>
<polygon fill="none" stroke="black" points="200,-478.5 200,-497.5 270,-497.5 270,-478.5 200,-478.5"/>
<text text-anchor="start" x="203" y="-484.9" font-family="Helvetica,sans-Serif" font-size="12.00">Version </text>
<polygon fill="#f0f0ff" stroke="none" points="270,-478.5 270,-497.5 422,-497.5 422,-478.5 270,-478.5"/>
<polygon fill="none" stroke="black" points="270,-478.5 270,-497.5 422,-497.5 422,-478.5 270,-478.5"/>
<text text-anchor="start" x="273" y="-484.9" font-family="Helvetica,sans-Serif" font-size="12.00">Version </text>
<polygon fill="#f0f0ff" stroke="none" points="200,-459.5 200,-478.5 270,-478.5 270,-459.5 200,-459.5"/>
<polygon fill="none" stroke="black" points="200,-459.5 200,-478.5 270,-478.5 270,-459.5 200,-459.5"/>
<text text-anchor="start" x="203" y="-465.9" font-family="Helvetica,sans-Serif" font-size="12.00">OSABI </text>
<polygon fill="#f0f0ff" stroke="none" points="270,-459.5 270,-478.5 422,-478.5 422,-459.5 270,-459.5"/>
<polygon fill="none" stroke="black" points="270,-459.5 270,-478.5 422,-478.5 422,-459.5 270,-459.5"/>
<text text-anchor="start" x="273" y="-465.9" font-family="Helvetica,sans-Serif" font-size="12.00">OSABI </text>
<polygon fill="#f0f0ff" stroke="none" points="200,-440.5 200,-459.5 270,-459.5 270,-440.5 200,-440.5"/>
<polygon fill="none" stroke="black" points="200,-440.5 200,-459.5 270,-459.5 270,-440.5 200,-440.5"/>
<text text-anchor="start" x="203" y="-446.9" font-family="Helvetica,sans-Serif" font-size="12.00">ABIVersion </text>
<polygon fill="#f0f0ff" stroke="none" points="270,-440.5 270,-459.5 422,-459.5 422,-440.5 270,-440.5"/>
<polygon fill="none" stroke="black" points="270,-440.5 270,-459.5 422,-459.5 422,-440.5 270,-440.5"/>
<text text-anchor="start" x="273" y="-446.9" font-family="Helvetica,sans-Serif" font-size="12.00">uint8 </text>
<polygon fill="#f0f0ff" stroke="none" points="200,-421.5 200,-440.5 270,-440.5 270,-421.5 200,-421.5"/>
<polygon fill="none" stroke="black" points="200,-421.5 200,-440.5 270,-440.5 270,-421.5 200,-421.5"/>
<text text-anchor="start" x="203" y="-427.9" font-family="Helvetica,sans-Serif" font-size="12.00">ByteOrder </text>
<polygon fill="#f0f0ff" stroke="none" points="270,-421.5 270,-440.5 422,-440.5 422,-421.5 270,-421.5"/>
<polygon fill="none" stroke="black" points="270,-421.5 270,-440.5 422,-440.5 422,-421.5 270,-421.5"/>
<text text-anchor="start" x="273" y="-427.9" font-family="Helvetica,sans-Serif" font-size="12.00">encoding/binary.ByteOrder </text>
<polygon fill="#f0f0ff" stroke="none" points="200,-402.5 200,-421.5 270,-421.5 270,-402.5 200,-402.5"/>
<polygon fill="none" stroke="black" points="200,-402.5 200,-421.5 270,-421.5 270,-402.5 200,-402.5"/>
<text text-anchor="start" x="203" y="-408.9" font-family="Helvetica,sans-Serif" font-size="12.00">Type </text>
<polygon fill="#f0f0ff" stroke="none" points="270,-402.5 270,-421.5 422,-421.5 422,-402.5 270,-402.5"/>
<polygon fill="none" stroke="black" points="270,-402.5 270,-421.5 422,-421.5 422,-402.5 270,-402.5"/>
<text text-anchor="start" x="273" y="-408.9" font-family="Helvetica,sans-Serif" font-size="12.00">Type </text>
<polygon fill="#f0f0ff" stroke="none" points="200,-383.5 200,-402.5 270,-402.5 270,-383.5 200,-383.5"/>
<polygon fill="none" stroke="black" points="200,-383.5 200,-402.5 270,-402.5 270,-383.5 200,-383.5"/>
<text text-anchor="start" x="203" y="-389.9" font-family="Helvetica,sans-Serif" font-size="12.00">Machine </text>
<polygon fill="#f0f0ff" stroke="none" points="270,-383.5 270,-402.5 422,-402.5 422,-383.5 270,-383.5"/>
<polygon fill="none" stroke="black" points="270,-383.5 270,-402.5 422,-402.5 422,-383.5 270,-383.5"/>
<text text-anchor="start" x="273" y="-389.9" font-family="Helvetica,sans-Serif" font-size="12.00">Machine </text>
<polygon fill="#f0f0ff" stroke="none" points="200,-364.5 200,-383.5 270,-383.5 270,-364.5 200,-364.5"/>
<polygon fill="none" stroke="black" points="200,-364.5 200,-383.5 270,-383.5 270,-364.5 200,-364.5"/>
<text text-anchor="start" x="203" y="-370.9" font-family="Helvetica,sans-Serif" font-size="12.00">Entry </text>
<polygon fill="#f0f0ff" stroke="none" points="270,-364.5 270,-383.5 422,-383.5 422,-364.5 270,-364.5"/>
<polygon fill="none" stroke="black" points="270,-364.5 270,-383.5 422,-383.5 422,-364.5 270,-364.5"/>
<text text-anchor="start" x="273" y="-370.9" font-family="Helvetica,sans-Serif" font-size="12.00">uint64 </text>
</a>
</g>
</g>
<!-- debug/elf.File&#45;&gt;debug/elf.FileHeader -->
<g id="edge3" class="edge"><title>debug/elf.File:FileHeader&#45;&gt;debug/elf.FileHeader</title>
<path fill="none" stroke="black" d="M149,-249.5C193.873,-249.5 169.071,-300.912 190.819,-347.12"/>
<polygon fill="black" stroke="black" points="186.408,-349.977 198.507,-360.282 195.475,-344.682 186.408,-349.977"/>
</g>
<!-- debug/elf.Section -->
<g id="node4" class="node"><title>debug/elf.Section</title>
<g id="a_node4"><a xlink:title="debug/elf.Section">
<polygon fill="#ffffff" stroke="none" points="202.5,-224.5 202.5,-338.5 419.5,-338.5 419.5,-224.5 202.5,-224.5"/>
<polygon fill="#e0e0ff" stroke="none" points="203,-319.5 203,-338.5 420,-338.5 420,-319.5 203,-319.5"/>
<polygon fill="none" stroke="black" points="203,-319.5 203,-338.5 420,-338.5 420,-319.5 203,-319.5"/>
<text text-anchor="start" x="281.5" y="-325.9" font-family="Helvetica,sans-Serif" font-size="12.00">elf.Section </text>
<polygon fill="#f0f0ff" stroke="none" points="203,-300.5 203,-319.5 312,-319.5 312,-300.5 203,-300.5"/>
<polygon fill="none" stroke="black" points="203,-300.5 203,-319.5 312,-319.5 312,-300.5 203,-300.5"/>
<text text-anchor="start" x="206" y="-306.9" font-family="Helvetica,sans-Serif" font-size="12.00">SectionHeader </text>
<polygon fill="#f0f0ff" stroke="none" points="312,-300.5 312,-319.5 420,-319.5 420,-300.5 312,-300.5"/>
<polygon fill="none" stroke="black" points="312,-300.5 312,-319.5 420,-319.5 420,-300.5 312,-300.5"/>
<text text-anchor="start" x="315" y="-306.9" font-family="Helvetica,sans-Serif" font-size="12.00">SectionHeader </text>
<polygon fill="#f0f0ff" stroke="none" points="203,-281.5 203,-300.5 312,-300.5 312,-281.5 203,-281.5"/>
<polygon fill="none" stroke="black" points="203,-281.5 203,-300.5 312,-300.5 312,-281.5 203,-281.5"/>
<text text-anchor="start" x="206" y="-287.9" font-family="Helvetica,sans-Serif" font-size="12.00">ReaderAt </text>
<polygon fill="#f0f0ff" stroke="none" points="312,-281.5 312,-300.5 420,-300.5 420,-281.5 312,-281.5"/>
<polygon fill="none" stroke="black" points="312,-281.5 312,-300.5 420,-300.5 420,-281.5 312,-281.5"/>
<text text-anchor="start" x="315" y="-287.9" font-family="Helvetica,sans-Serif" font-size="12.00">io.ReaderAt </text>
<polygon fill="#f0f0ff" stroke="none" points="203,-262.5 203,-281.5 312,-281.5 312,-262.5 203,-262.5"/>
<polygon fill="none" stroke="black" points="203,-262.5 203,-281.5 312,-281.5 312,-262.5 203,-262.5"/>
<text text-anchor="start" x="206" y="-268.9" font-family="Helvetica,sans-Serif" font-size="12.00">sr </text>
<polygon fill="#f0f0ff" stroke="none" points="312,-262.5 312,-281.5 420,-281.5 420,-262.5 312,-262.5"/>
<polygon fill="none" stroke="black" points="312,-262.5 312,-281.5 420,-281.5 420,-262.5 312,-262.5"/>
<text text-anchor="start" x="315" y="-268.9" font-family="Helvetica,sans-Serif" font-size="12.00">*io.SectionReader </text>
<polygon fill="#f0f0ff" stroke="none" points="203,-243.5 203,-262.5 312,-262.5 312,-243.5 203,-243.5"/>
<polygon fill="none" stroke="black" points="203,-243.5 203,-262.5 312,-262.5 312,-243.5 203,-243.5"/>
<text text-anchor="start" x="206" y="-249.9" font-family="Helvetica,sans-Serif" font-size="12.00">compressionType </text>
<polygon fill="#f0f0ff" stroke="none" points="312,-243.5 312,-262.5 420,-262.5 420,-243.5 312,-243.5"/>
<polygon fill="none" stroke="black" points="312,-243.5 312,-262.5 420,-262.5 420,-243.5 312,-243.5"/>
<text text-anchor="start" x="315" y="-249.9" font-family="Helvetica,sans-Serif" font-size="12.00">CompressionType </text>
<polygon fill="#f0f0ff" stroke="none" points="203,-224.5 203,-243.5 312,-243.5 312,-224.5 203,-224.5"/>
<polygon fill="none" stroke="black" points="203,-224.5 203,-243.5 312,-243.5 312,-224.5 203,-224.5"/>
<text text-anchor="start" x="206" y="-230.9" font-family="Helvetica,sans-Serif" font-size="12.00">compressionOffset </text>
<polygon fill="#f0f0ff" stroke="none" points="312,-224.5 312,-243.5 420,-243.5 420,-224.5 312,-224.5"/>
<polygon fill="none" stroke="black" points="312,-224.5 312,-243.5 420,-243.5 420,-224.5 312,-224.5"/>
<text text-anchor="start" x="315" y="-230.9" font-family="Helvetica,sans-Serif" font-size="12.00">int64 </text>
</a>
</g>
</g>
<!-- debug/elf.File&#45;&gt;debug/elf.Section -->
<g id="edge4" class="edge"><title>debug/elf.File:Sections&#45;&gt;debug/elf.Section</title>
<path fill="none" stroke="black" d="M149,-230.5C159.047,-230.5 169.288,-231.414 179.493,-232.997"/>
<polygon fill="black" stroke="black" points="178.683,-238.186 194.39,-235.766 180.602,-227.863 178.683,-238.186"/>
</g>
<!-- debug/elf.verneed -->
<g id="node5" class="node"><title>debug/elf.verneed</title>
<g id="a_node5"><a xlink:title="debug/elf.verneed">
<polygon fill="#ffffff" stroke="none" points="270.5,-39 270.5,-96 351.5,-96 351.5,-39 270.5,-39"/>
<polygon fill="#e0e0ff" stroke="none" points="271,-76.5 271,-95.5 352,-95.5 352,-76.5 271,-76.5"/>
<polygon fill="none" stroke="black" points="271,-76.5 271,-95.5 352,-95.5 352,-76.5 271,-76.5"/>
<text text-anchor="start" x="280" y="-82.9" font-family="Helvetica,sans-Serif" font-size="12.00">elf.verneed </text>
<polygon fill="#f0f0ff" stroke="none" points="271,-57.5 271,-76.5 313,-76.5 313,-57.5 271,-57.5"/>
<polygon fill="none" stroke="black" points="271,-57.5 271,-76.5 313,-76.5 313,-57.5 271,-57.5"/>
<text text-anchor="start" x="274" y="-63.9" font-family="Helvetica,sans-Serif" font-size="12.00">File </text>
<polygon fill="#f0f0ff" stroke="none" points="313,-57.5 313,-76.5 352,-76.5 352,-57.5 313,-57.5"/>
<polygon fill="none" stroke="black" points="313,-57.5 313,-76.5 352,-76.5 352,-57.5 313,-57.5"/>
<text text-anchor="start" x="316" y="-63.9" font-family="Helvetica,sans-Serif" font-size="12.00">string </text>
<polygon fill="#f0f0ff" stroke="none" points="271,-38.5 271,-57.5 313,-57.5 313,-38.5 271,-38.5"/>
<polygon fill="none" stroke="black" points="271,-38.5 271,-57.5 313,-57.5 313,-38.5 271,-38.5"/>
<text text-anchor="start" x="274" y="-44.9" font-family="Helvetica,sans-Serif" font-size="12.00">Name </text>
<polygon fill="#f0f0ff" stroke="none" points="313,-38.5 313,-57.5 352,-57.5 352,-38.5 313,-38.5"/>
<polygon fill="none" stroke="black" points="313,-38.5 313,-57.5 352,-57.5 352,-38.5 313,-38.5"/>
<text text-anchor="start" x="316" y="-44.9" font-family="Helvetica,sans-Serif" font-size="12.00">string </text>
</a>
</g>
</g>
<!-- debug/elf.File&#45;&gt;debug/elf.verneed -->
<g id="edge6" class="edge"><title>debug/elf.File:gnuNeed&#45;&gt;debug/elf.verneed</title>
<path fill="none" stroke="black" d="M149,-172.5C182.9,-172.5 165.155,-130.202 192,-109.5 208.329,-96.9075 228.752,-87.8812 247.995,-81.5069"/>
<polygon fill="black" stroke="black" points="249.566,-86.5166 262.393,-77.1342 246.515,-76.4697 249.566,-86.5166"/>
</g>
<!-- debug/elf.SectionHeader -->
<g id="node6" class="node"><title>debug/elf.SectionHeader</title>
<g id="a_node6"><a xlink:title="debug/elf.SectionHeader">
<polygon fill="#ffffff" stroke="none" points="474,-239.5 474,-467.5 612,-467.5 612,-239.5 474,-239.5"/>
<polygon fill="#e0e0ff" stroke="none" points="474,-448.5 474,-467.5 612,-467.5 612,-448.5 474,-448.5"/>
<polygon fill="none" stroke="black" points="474,-448.5 474,-467.5 612,-467.5 612,-448.5 474,-448.5"/>
<text text-anchor="start" x="493" y="-454.9" font-family="Helvetica,sans-Serif" font-size="12.00">elf.SectionHeader </text>
<polygon fill="#f0f0ff" stroke="none" points="474,-429.5 474,-448.5 535,-448.5 535,-429.5 474,-429.5"/>
<polygon fill="none" stroke="black" points="474,-429.5 474,-448.5 535,-448.5 535,-429.5 474,-429.5"/>
<text text-anchor="start" x="477" y="-435.9" font-family="Helvetica,sans-Serif" font-size="12.00">Name </text>
<polygon fill="#f0f0ff" stroke="none" points="535,-429.5 535,-448.5 612,-448.5 612,-429.5 535,-429.5"/>
<polygon fill="none" stroke="black" points="535,-429.5 535,-448.5 612,-448.5 612,-429.5 535,-429.5"/>
<text text-anchor="start" x="538" y="-435.9" font-family="Helvetica,sans-Serif" font-size="12.00">string </text>
<polygon fill="#f0f0ff" stroke="none" points="474,-410.5 474,-429.5 535,-429.5 535,-410.5 474,-410.5"/>
<polygon fill="none" stroke="black" points="474,-410.5 474,-429.5 535,-429.5 535,-410.5 474,-410.5"/>
<text text-anchor="start" x="477" y="-416.9" font-family="Helvetica,sans-Serif" font-size="12.00">Type </text>
<polygon fill="#f0f0ff" stroke="none" points="535,-410.5 535,-429.5 612,-429.5 612,-410.5 535,-410.5"/>
<polygon fill="none" stroke="black" points="535,-410.5 535,-429.5 612,-429.5 612,-410.5 535,-410.5"/>
<text text-anchor="start" x="538" y="-416.9" font-family="Helvetica,sans-Serif" font-size="12.00">SectionType </text>
<polygon fill="#f0f0ff" stroke="none" points="474,-391.5 474,-410.5 535,-410.5 535,-391.5 474,-391.5"/>
<polygon fill="none" stroke="black" points="474,-391.5 474,-410.5 535,-410.5 535,-391.5 474,-391.5"/>
<text text-anchor="start" x="477" y="-397.9" font-family="Helvetica,sans-Serif" font-size="12.00">Flags </text>
<polygon fill="#f0f0ff" stroke="none" points="535,-391.5 535,-410.5 612,-410.5 612,-391.5 535,-391.5"/>
<polygon fill="none" stroke="black" points="535,-391.5 535,-410.5 612,-410.5 612,-391.5 535,-391.5"/>
<text text-anchor="start" x="538" y="-397.9" font-family="Helvetica,sans-Serif" font-size="12.00">SectionFlag </text>
<polygon fill="#f0f0ff" stroke="none" points="474,-372.5 474,-391.5 535,-391.5 535,-372.5 474,-372.5"/>
<polygon fill="none" stroke="black" points="474,-372.5 474,-391.5 535,-391.5 535,-372.5 474,-372.5"/>
<text text-anchor="start" x="477" y="-378.9" font-family="Helvetica,sans-Serif" font-size="12.00">Addr </text>
<polygon fill="#f0f0ff" stroke="none" points="535,-372.5 535,-391.5 612,-391.5 612,-372.5 535,-372.5"/>
<polygon fill="none" stroke="black" points="535,-372.5 535,-391.5 612,-391.5 612,-372.5 535,-372.5"/>
<text text-anchor="start" x="538" y="-378.9" font-family="Helvetica,sans-Serif" font-size="12.00">uint64 </text>
<polygon fill="#f0f0ff" stroke="none" points="474,-353.5 474,-372.5 535,-372.5 535,-353.5 474,-353.5"/>
<polygon fill="none" stroke="black" points="474,-353.5 474,-372.5 535,-372.5 535,-353.5 474,-353.5"/>
<text text-anchor="start" x="477" y="-359.9" font-family="Helvetica,sans-Serif" font-size="12.00">Offset </text>
<polygon fill="#f0f0ff" stroke="none" points="535,-353.5 535,-372.5 612,-372.5 612,-353.5 535,-353.5"/>
<polygon fill="none" stroke="black" points="535,-353.5 535,-372.5 612,-372.5 612,-353.5 535,-353.5"/>
<text text-anchor="start" x="538" y="-359.9" font-family="Helvetica,sans-Serif" font-size="12.00">uint64 </text>
<polygon fill="#f0f0ff" stroke="none" points="474,-334.5 474,-353.5 535,-353.5 535,-334.5 474,-334.5"/>
<polygon fill="none" stroke="black" points="474,-334.5 474,-353.5 535,-353.5 535,-334.5 474,-334.5"/>
<text text-anchor="start" x="477" y="-340.9" font-family="Helvetica,sans-Serif" font-size="12.00">Size </text>
<polygon fill="#f0f0ff" stroke="none" points="535,-334.5 535,-353.5 612,-353.5 612,-334.5 535,-334.5"/>
<polygon fill="none" stroke="black" points="535,-334.5 535,-353.5 612,-353.5 612,-334.5 535,-334.5"/>
<text text-anchor="start" x="538" y="-340.9" font-family="Helvetica,sans-Serif" font-size="12.00">uint64 </text>
<polygon fill="#f0f0ff" stroke="none" points="474,-315.5 474,-334.5 535,-334.5 535,-315.5 474,-315.5"/>
<polygon fill="none" stroke="black" points="474,-315.5 474,-334.5 535,-334.5 535,-315.5 474,-315.5"/>
<text text-anchor="start" x="477" y="-321.9" font-family="Helvetica,sans-Serif" font-size="12.00">Link </text>
<polygon fill="#f0f0ff" stroke="none" points="535,-315.5 535,-334.5 612,-334.5 612,-315.5 535,-315.5"/>
<polygon fill="none" stroke="black" points="535,-315.5 535,-334.5 612,-334.5 612,-315.5 535,-315.5"/>
<text text-anchor="start" x="538" y="-321.9" font-family="Helvetica,sans-Serif" font-size="12.00">uint32 </text>
<polygon fill="#f0f0ff" stroke="none" points="474,-296.5 474,-315.5 535,-315.5 535,-296.5 474,-296.5"/>
<polygon fill="none" stroke="black" points="474,-296.5 474,-315.5 535,-315.5 535,-296.5 474,-296.5"/>
<text text-anchor="start" x="477" y="-302.9" font-family="Helvetica,sans-Serif" font-size="12.00">Info </text>
<polygon fill="#f0f0ff" stroke="none" points="535,-296.5 535,-315.5 612,-315.5 612,-296.5 535,-296.5"/>
<polygon fill="none" stroke="black" points="535,-296.5 535,-315.5 612,-315.5 612,-296.5 535,-296.5"/>
<text text-anchor="start" x="538" y="-302.9" font-family="Helvetica,sans-Serif" font-size="12.00">uint32 </text>
<polygon fill="#f0f0ff" stroke="none" points="474,-277.5 474,-296.5 535,-296.5 535,-277.5 474,-277.5"/>
<polygon fill="none" stroke="black" points="474,-277.5 474,-296.5 535,-296.5 535,-277.5 474,-277.5"/>
<text text-anchor="start" x="477" y="-283.9" font-family="Helvetica,sans-Serif" font-size="12.00">Addralign </text>
<polygon fill="#f0f0ff" stroke="none" points="535,-277.5 535,-296.5 612,-296.5 612,-277.5 535,-277.5"/>
<polygon fill="none" stroke="black" points="535,-277.5 535,-296.5 612,-296.5 612,-277.5 535,-277.5"/>
<text text-anchor="start" x="538" y="-283.9" font-family="Helvetica,sans-Serif" font-size="12.00">uint64 </text>
<polygon fill="#f0f0ff" stroke="none" points="474,-258.5 474,-277.5 535,-277.5 535,-258.5 474,-258.5"/>
<polygon fill="none" stroke="black" points="474,-258.5 474,-277.5 535,-277.5 535,-258.5 474,-258.5"/>
<text text-anchor="start" x="477" y="-264.9" font-family="Helvetica,sans-Serif" font-size="12.00">Entsize </text>
<polygon fill="#f0f0ff" stroke="none" points="535,-258.5 535,-277.5 612,-277.5 612,-258.5 535,-258.5"/>
<polygon fill="none" stroke="black" points="535,-258.5 535,-277.5 612,-277.5 612,-258.5 535,-258.5"/>
<text text-anchor="start" x="538" y="-264.9" font-family="Helvetica,sans-Serif" font-size="12.00">uint64 </text>
<polygon fill="#f0f0ff" stroke="none" points="474,-239.5 474,-258.5 535,-258.5 535,-239.5 474,-239.5"/>
<polygon fill="none" stroke="black" points="474,-239.5 474,-258.5 535,-258.5 535,-239.5 474,-239.5"/>
<text text-anchor="start" x="477" y="-245.9" font-family="Helvetica,sans-Serif" font-size="12.00">FileSize </text>
<polygon fill="#f0f0ff" stroke="none" points="535,-239.5 535,-258.5 612,-258.5 612,-239.5 535,-239.5"/>
<polygon fill="none" stroke="black" points="535,-239.5 535,-258.5 612,-258.5 612,-239.5 535,-239.5"/>
<text text-anchor="start" x="538" y="-245.9" font-family="Helvetica,sans-Serif" font-size="12.00">uint64 </text>
</a>
</g>
</g>
<!-- debug/elf.Section&#45;&gt;debug/elf.SectionHeader -->
<g id="edge1" class="edge"><title>debug/elf.Section:SectionHeader&#45;&gt;debug/elf.SectionHeader</title>
<path fill="none" stroke="black" d="M421,-310.5C431.036,-310.5 441.284,-311.83 451.358,-314.021"/>
<polygon fill="black" stroke="black" points="450.114,-319.122 465.951,-317.794 452.743,-308.956 450.114,-319.122"/>
</g>
</g>
</svg>
