<?xml version="1.0" encoding="UTF-8" standalone="no"?>
<!DOCTYPE svg PUBLIC "-//W3C//DTD SVG 1.1//EN"
 "http://www.w3.org/Graphics/SVG/1.1/DTD/svg11.dtd">
<!-- Generated by graphviz version 2.38.0 (20140413.2041)
 -->
<!-- Title: structDiagram Pages: 1 -->
<svg width="757pt" height="464pt"
 viewBox="0.00 0.00 757.00 464.04" xmlns="http://www.w3.org/2000/svg" xmlns:xlink="http://www.w3.org/1999/xlink">
<g id="graph0" class="graph" transform="scale(1 1) rotate(0) translate(4 460.036)">
<title>structDiagram</title>
<g id="a_graph0"><a xlink:href="http://www.github.com/paulcager/typegraph" xlink:title="\nGenerated by typegraph: debug/gosym">
<polygon fill="#f8f8f8" stroke="none" points="-4,4 -4,-460.036 753,-460.036 753,4 -4,4"/>
<text text-anchor="middle" x="111.5" y="-7.4" font-family="Helvetica,sans-Serif" font-size="12.00">Generated by typegraph: debug/gosym</text>
</a>
</g>
<!-- debug/gosym.LineTable -->
<g id="node1" class="node"><title>debug/gosym.LineTable</title>
<g id="a_node1"><a xlink:title="debug/gosym.LineTable">
<polygon fill="#ffffff" stroke="none" points="533,-39 533,-305 741,-305 741,-39 533,-39"/>
<polygon fill="#e0e0ff" stroke="none" points="533,-286 533,-305 741,-305 741,-286 533,-286"/>
<polygon fill="none" stroke="black" points="533,-286 533,-305 741,-305 741,-286 533,-286"/>
<text text-anchor="start" x="589" y="-292.4" font-family="Helvetica,sans-Serif" font-size="12.00">gosym.LineTable </text>
<polygon fill="#f0f0ff" stroke="none" points="533,-267 533,-286 589,-286 589,-267 533,-267"/>
<polygon fill="none" stroke="black" points="533,-267 533,-286 589,-286 589,-267 533,-267"/>
<text text-anchor="start" x="536" y="-273.4" font-family="Helvetica,sans-Serif" font-size="12.00">Data </text>
<polygon fill="#f0f0ff" stroke="none" points="589,-267 589,-286 741,-286 741,-267 589,-267"/>
<polygon fill="none" stroke="black" points="589,-267 589,-286 741,-286 741,-267 589,-267"/>
<text text-anchor="start" x="592" y="-273.4" font-family="Helvetica,sans-Serif" font-size="12.00">[]byte </text>
<polygon fill="#f0f0ff" stroke="none" points="533,-248 533,-267 589,-267 589,-248 533,-248"/>
<polygon fill="none" stroke="black" points="533,-248 533,-267 589,-267 589,-248 533,-248"/>
<text text-anchor="start" x="536" y="-254.4" font-family="Helvetica,sans-Serif" font-size="12.00">PC </text>
<polygon fill="#f0f0ff" stroke="none" points="589,-248 589,-267 741,-267 741,-248 589,-248"/>
<polygon fill="none" stroke="black" points="589,-248 589,-267 741,-267 741,-248 589,-248"/>
<text text-anchor="start" x="592" y="-254.4" font-family="Helvetica,sans-Serif" font-size="12.00">uint64 </text>
<polygon fill="#f0f0ff" stroke="none" points="533,-229 533,-248 589,-248 589,-229 533,-229"/>
<polygon fill="none" stroke="black" points="533,-229 533,-248 589,-248 589,-229 533,-229"/>
<text text-anchor="start" x="536" y="-235.4" font-family="Helvetica,sans-Serif" font-size="12.00">Line </text>
<polygon fill="#f0f0ff" stroke="none" points="589,-229 589,-248 741,-248 741,-229 589,-229"/>
<polygon fill="none" stroke="black" points="589,-229 589,-248 741,-248 741,-229 589,-229"/>
<text text-anchor="start" x="592" y="-235.4" font-family="Helvetica,sans-Serif" font-size="12.00">int </text>
<polygon fill="#f0f0ff" stroke="none" points="533,-210 533,-229 589,-229 589,-210 533,-210"/>
<polygon fill="none" stroke="black" points="533,-210 533,-229 589,-229 589,-210 533,-210"/>
<text text-anchor="start" x="536" y="-216.4" font-family="Helvetica,sans-Serif" font-size="12.00">mu </text>
<polygon fill="#f0f0ff" stroke="none" points="589,-210 589,-229 741,-229 741,-210 589,-210"/>
<polygon fill="none" stroke="black" points="589,-210 589,-229 741,-229 741,-210 589,-210"/>
<text text-anchor="start" x="592" y="-216.4" font-family="Helvetica,sans-Serif" font-size="12.00">sync.Mutex </text>
<polygon fill="#f0f0ff" stroke="none" points="533,-191 533,-210 589,-210 589,-191 533,-191"/>
<polygon fill="none" stroke="black" points="533,-191 533,-210 589,-210 589,-191 533,-191"/>
<text text-anchor="start" x="536" y="-197.4" font-family="Helvetica,sans-Serif" font-size="12.00">go12 </text>
<polygon fill="#f0f0ff" stroke="none" points="589,-191 589,-210 741,-210 741,-191 589,-191"/>
<polygon fill="none" stroke="black" points="589,-191 589,-210 741,-210 741,-191 589,-191"/>
<text text-anchor="start" x="592" y="-197.4" font-family="Helvetica,sans-Serif" font-size="12.00">int </text>
<polygon fill="#f0f0ff" stroke="none" points="533,-172 533,-191 589,-191 589,-172 533,-172"/>
<polygon fill="none" stroke="black" points="533,-172 533,-191 589,-191 589,-172 533,-172"/>
<text text-anchor="start" x="536" y="-178.4" font-family="Helvetica,sans-Serif" font-size="12.00">binary </text>
<polygon fill="#f0f0ff" stroke="none" points="589,-172 589,-191 741,-191 741,-172 589,-172"/>
<polygon fill="none" stroke="black" points="589,-172 589,-191 741,-191 741,-172 589,-172"/>
<text text-anchor="start" x="592" y="-178.4" font-family="Helvetica,sans-Serif" font-size="12.00">encoding/binary.ByteOrder </text>
<polygon fill="#f0f0ff" stroke="none" points="533,-153 533,-172 589,-172 589,-153 533,-153"/>
<polygon fill="none" stroke="black" points="533,-153 533,-172 589,-172 589,-153 533,-153"/>
<text text-anchor="start" x="536" y="-159.4" font-family="Helvetica,sans-Serif" font-size="12.00">quantum </text>
<polygon fill="#f0f0ff" stroke="none" points="589,-153 589,-172 741,-172 741,-153 589,-153"/>
<polygon fill="none" stroke="black" points="589,-153 589,-172 741,-172 741,-153 589,-153"/>
<text text-anchor="start" x="592" y="-159.4" font-family="Helvetica,sans-Serif" font-size="12.00">uint32 </text>
<polygon fill="#f0f0ff" stroke="none" points="533,-134 533,-153 589,-153 589,-134 533,-134"/>
<polygon fill="none" stroke="black" points="533,-134 533,-153 589,-153 589,-134 533,-134"/>
<text text-anchor="start" x="536" y="-140.4" font-family="Helvetica,sans-Serif" font-size="12.00">ptrsize </text>
<polygon fill="#f0f0ff" stroke="none" points="589,-134 589,-153 741,-153 741,-134 589,-134"/>
<polygon fill="none" stroke="black" points="589,-134 589,-153 741,-153 741,-134 589,-134"/>
<text text-anchor="start" x="592" y="-140.4" font-family="Helvetica,sans-Serif" font-size="12.00">uint32 </text>
<polygon fill="#f0f0ff" stroke="none" points="533,-115 533,-134 589,-134 589,-115 533,-115"/>
<polygon fill="none" stroke="black" points="533,-115 533,-134 589,-134 589,-115 533,-115"/>
<text text-anchor="start" x="536" y="-121.4" font-family="Helvetica,sans-Serif" font-size="12.00">functab </text>
<polygon fill="#f0f0ff" stroke="none" points="589,-115 589,-134 741,-134 741,-115 589,-115"/>
<polygon fill="none" stroke="black" points="589,-115 589,-134 741,-134 741,-115 589,-115"/>
<text text-anchor="start" x="592" y="-121.4" font-family="Helvetica,sans-Serif" font-size="12.00">[]byte </text>
<polygon fill="#f0f0ff" stroke="none" points="533,-96 533,-115 589,-115 589,-96 533,-96"/>
<polygon fill="none" stroke="black" points="533,-96 533,-115 589,-115 589,-96 533,-96"/>
<text text-anchor="start" x="536" y="-102.4" font-family="Helvetica,sans-Serif" font-size="12.00">nfunctab </text>
<polygon fill="#f0f0ff" stroke="none" points="589,-96 589,-115 741,-115 741,-96 589,-96"/>
<polygon fill="none" stroke="black" points="589,-96 589,-115 741,-115 741,-96 589,-96"/>
<text text-anchor="start" x="592" y="-102.4" font-family="Helvetica,sans-Serif" font-size="12.00">uint32 </text>
<polygon fill="#f0f0ff" stroke="none" points="533,-77 533,-96 589,-96 589,-77 533,-77"/>
<polygon fill="none" stroke="black" points="533,-77 533,-96 589,-96 589,-77 533,-77"/>
<text text-anchor="start" x="536" y="-83.4" font-family="Helvetica,sans-Serif" font-size="12.00">filetab </text>
<polygon fill="#f0f0ff" stroke="none" points="589,-77 589,-96 741,-96 741,-77 589,-77"/>
<polygon fill="none" stroke="black" points="589,-77 589,-96 741,-96 741,-77 589,-77"/>
<text text-anchor="start" x="592" y="-83.4" font-family="Helvetica,sans-Serif" font-size="12.00">[]byte </text>
<polygon fill="#f0f0ff" stroke="none" points="533,-58 533,-77 589,-77 589,-58 533,-58"/>
<polygon fill="none" stroke="black" points="533,-58 533,-77 589,-77 589,-58 533,-58"/>
<text text-anchor="start" x="536" y="-64.4" font-family="Helvetica,sans-Serif" font-size="12.00">nfiletab </text>
<polygon fill="#f0f0ff" stroke="none" points="589,-58 589,-77 741,-77 741,-58 589,-58"/>
<polygon fill="none" stroke="black" points="589,-58 589,-77 741,-77 741,-58 589,-58"/>
<text text-anchor="start" x="592" y="-64.4" font-family="Helvetica,sans-Serif" font-size="12.00">uint32 </text>
<polygon fill="#f0f0ff" stroke="none" points="533,-39 533,-58 589,-58 589,-39 533,-39"/>
<polygon fill="none" stroke="black" points="533,-39 533,-58 589,-58 589,-39 533,-39"/>
<text text-anchor="start" x="536" y="-45.4" font-family="Helvetica,sans-Serif" font-size="12.00">fileMap </text>
<polygon fill="#f0f0ff" stroke="none" points="589,-39 589,-58 741,-58 741,-39 589,-39"/>
<polygon fill="none" stroke="black" points="589,-39 589,-58 741,-58 741,-39 589,-39"/>
<text text-anchor="start" x="592" y="-45.4" font-family="Helvetica,sans-Serif" font-size="12.00">map[string]uint32 </text>
</a>
</g>
</g>
<!-- debug/gosym.Table -->
<g id="node2" class="node"><title>debug/gosym.Table</title>
<g id="a_node2"><a xlink:title="debug/gosym.Table">
<polygon fill="#ffffff" stroke="none" points="8,-244 8,-358 155,-358 155,-244 8,-244"/>
<polygon fill="#e0e0ff" stroke="none" points="8.5,-339 8.5,-358 155.5,-358 155.5,-339 8.5,-339"/>
<polygon fill="none" stroke="black" points="8.5,-339 8.5,-358 155.5,-358 155.5,-339 8.5,-339"/>
<text text-anchor="start" x="45.5" y="-345.4" font-family="Helvetica,sans-Serif" font-size="12.00">gosym.Table </text>
<polygon fill="#f0f0ff" stroke="none" points="8.5,-320 8.5,-339 64.5,-339 64.5,-320 8.5,-320"/>
<polygon fill="none" stroke="black" points="8.5,-320 8.5,-339 64.5,-339 64.5,-320 8.5,-320"/>
<text text-anchor="start" x="11.5" y="-326.4" font-family="Helvetica,sans-Serif" font-size="12.00">Syms </text>
<polygon fill="#f0f0ff" stroke="none" points="64.5,-320 64.5,-339 155.5,-339 155.5,-320 64.5,-320"/>
<polygon fill="none" stroke="black" points="64.5,-320 64.5,-339 155.5,-339 155.5,-320 64.5,-320"/>
<text text-anchor="start" x="67.5" y="-326.4" font-family="Helvetica,sans-Serif" font-size="12.00">[]Sym </text>
<polygon fill="#f0f0ff" stroke="none" points="8.5,-301 8.5,-320 64.5,-320 64.5,-301 8.5,-301"/>
<polygon fill="none" stroke="black" points="8.5,-301 8.5,-320 64.5,-320 64.5,-301 8.5,-301"/>
<text text-anchor="start" x="11.5" y="-307.4" font-family="Helvetica,sans-Serif" font-size="12.00">Funcs </text>
<polygon fill="#f0f0ff" stroke="none" points="64.5,-301 64.5,-320 155.5,-320 155.5,-301 64.5,-301"/>
<polygon fill="none" stroke="black" points="64.5,-301 64.5,-320 155.5,-320 155.5,-301 64.5,-301"/>
<text text-anchor="start" x="67.5" y="-307.4" font-family="Helvetica,sans-Serif" font-size="12.00">[]Func </text>
<polygon fill="#f0f0ff" stroke="none" points="8.5,-282 8.5,-301 64.5,-301 64.5,-282 8.5,-282"/>
<polygon fill="none" stroke="black" points="8.5,-282 8.5,-301 64.5,-301 64.5,-282 8.5,-282"/>
<text text-anchor="start" x="11.5" y="-288.4" font-family="Helvetica,sans-Serif" font-size="12.00">Files </text>
<polygon fill="#f0f0ff" stroke="none" points="64.5,-282 64.5,-301 155.5,-301 155.5,-282 64.5,-282"/>
<polygon fill="none" stroke="black" points="64.5,-282 64.5,-301 155.5,-301 155.5,-282 64.5,-282"/>
<text text-anchor="start" x="67.5" y="-288.4" font-family="Helvetica,sans-Serif" font-size="12.00">map[string]*Obj </text>
<polygon fill="#f0f0ff" stroke="none" points="8.5,-263 8.5,-282 64.5,-282 64.5,-263 8.5,-263"/>
<polygon fill="none" stroke="black" points="8.5,-263 8.5,-282 64.5,-282 64.5,-263 8.5,-263"/>
<text text-anchor="start" x="11.5" y="-269.4" font-family="Helvetica,sans-Serif" font-size="12.00">Objs </text>
<polygon fill="#f0f0ff" stroke="none" points="64.5,-263 64.5,-282 155.5,-282 155.5,-263 64.5,-263"/>
<polygon fill="none" stroke="black" points="64.5,-263 64.5,-282 155.5,-282 155.5,-263 64.5,-263"/>
<text text-anchor="start" x="67.5" y="-269.4" font-family="Helvetica,sans-Serif" font-size="12.00">[]Obj </text>
<polygon fill="#f0f0ff" stroke="none" points="8.5,-244 8.5,-263 64.5,-263 64.5,-244 8.5,-244"/>
<polygon fill="none" stroke="black" points="8.5,-244 8.5,-263 64.5,-263 64.5,-244 8.5,-244"/>
<text text-anchor="start" x="11.5" y="-250.4" font-family="Helvetica,sans-Serif" font-size="12.00">go12line </text>
<polygon fill="#f0f0ff" stroke="none" points="64.5,-244 64.5,-263 155.5,-263 155.5,-244 64.5,-244"/>
<polygon fill="none" stroke="black" points="64.5,-244 64.5,-263 155.5,-263 155.5,-244 64.5,-244"/>
<text text-anchor="start" x="67.5" y="-250.4" font-family="Helvetica,sans-Serif" font-size="12.00">*LineTable </text>
</a>
</g>
</g>
<!-- debug/gosym.Table&#45;&gt;debug/gosym.LineTable -->
<g id="edge11" class="edge"><title>debug/gosym.Table:go12line&#45;&gt;debug/gosym.LineTable</title>
<path fill="none" stroke="black" d="M156.5,-253C177.978,-253 178.573,-236.634 199,-230 300.496,-197.04 421.069,-182.778 509.828,-176.624"/>
<polygon fill="black" stroke="black" points="510.279,-181.856 524.904,-175.635 509.592,-171.378 510.279,-181.856"/>
</g>
<!-- debug/gosym.Obj -->
<g id="node3" class="node"><title>debug/gosym.Obj</title>
<g id="a_node3"><a xlink:title="debug/gosym.Obj">
<polygon fill="#ffffff" stroke="none" points="207,-243.5 207,-300.5 293,-300.5 293,-243.5 207,-243.5"/>
<polygon fill="#e0e0ff" stroke="none" points="207,-281 207,-300 293,-300 293,-281 207,-281"/>
<polygon fill="none" stroke="black" points="207,-281 207,-300 293,-300 293,-281 207,-281"/>
<text text-anchor="start" x="219.5" y="-287.4" font-family="Helvetica,sans-Serif" font-size="12.00">gosym.Obj </text>
<polygon fill="#f0f0ff" stroke="none" points="207,-262 207,-281 250,-281 250,-262 207,-262"/>
<polygon fill="none" stroke="black" points="207,-262 207,-281 250,-281 250,-262 207,-262"/>
<text text-anchor="start" x="210" y="-268.4" font-family="Helvetica,sans-Serif" font-size="12.00">Funcs </text>
<polygon fill="#f0f0ff" stroke="none" points="250,-262 250,-281 293,-281 293,-262 250,-262"/>
<polygon fill="none" stroke="black" points="250,-262 250,-281 293,-281 293,-262 250,-262"/>
<text text-anchor="start" x="253" y="-268.4" font-family="Helvetica,sans-Serif" font-size="12.00">[]Func </text>
<polygon fill="#f0f0ff" stroke="none" points="207,-243 207,-262 250,-262 250,-243 207,-243"/>
<polygon fill="none" stroke="black" points="207,-243 207,-262 250,-262 250,-243 207,-243"/>
<text text-anchor="start" x="210" y="-249.4" font-family="Helvetica,sans-Serif" font-size="12.00">Paths </text>
<polygon fill="#f0f0ff" stroke="none" points="250,-243 250,-262 293,-262 293,-243 250,-243"/>
<polygon fill="none" stroke="black" points="250,-243 250,-262 293,-262 293,-243 250,-243"/>
<text text-anchor="start" x="253" y="-249.4" font-family="Helvetica,sans-Serif" font-size="12.00">[]Sym </text>
</a>
</g>
</g>
<!-- debug/gosym.Table&#45;&gt;debug/gosym.Obj -->
<g id="edge9" class="edge"><title>debug/gosym.Table:Files&#45;&gt;debug/gosym.Obj</title>
<path fill="none" stroke="black" d="M156.5,-291C165.427,-291 174.742,-290.14 183.875,-288.787"/>
<polygon fill="black" stroke="black" points="185.122,-293.898 198.974,-286.107 183.287,-283.559 185.122,-293.898"/>
</g>
<!-- debug/gosym.Table&#45;&gt;debug/gosym.Obj -->
<g id="edge10" class="edge"><title>debug/gosym.Table:Objs&#45;&gt;debug/gosym.Obj</title>
<path fill="none" stroke="black" d="M156.5,-272C165.245,-272 174.454,-272 183.535,-272"/>
<polygon fill="black" stroke="black" points="183.592,-277.25 198.592,-272 183.592,-266.75 183.592,-277.25"/>
</g>
<!-- debug/gosym.Func -->
<g id="node4" class="node"><title>debug/gosym.Func</title>
<g id="a_node4"><a xlink:title="debug/gosym.Func">
<polygon fill="#ffffff" stroke="none" points="345,-259.5 345,-430.5 481,-430.5 481,-259.5 345,-259.5"/>
<polygon fill="#e0e0ff" stroke="none" points="345,-411 345,-430 481,-430 481,-411 345,-411"/>
<polygon fill="none" stroke="black" points="345,-411 345,-430 481,-430 481,-411 345,-411"/>
<text text-anchor="start" x="378.5" y="-417.4" font-family="Helvetica,sans-Serif" font-size="12.00">gosym.Func </text>
<polygon fill="#f0f0ff" stroke="none" points="345,-392 345,-411 413,-411 413,-392 345,-392"/>
<polygon fill="none" stroke="black" points="345,-392 345,-411 413,-411 413,-392 345,-392"/>
<text text-anchor="start" x="348" y="-398.4" font-family="Helvetica,sans-Serif" font-size="12.00">Entry </text>
<polygon fill="#f0f0ff" stroke="none" points="413,-392 413,-411 481,-411 481,-392 413,-392"/>
<polygon fill="none" stroke="black" points="413,-392 413,-411 481,-411 481,-392 413,-392"/>
<text text-anchor="start" x="416" y="-398.4" font-family="Helvetica,sans-Serif" font-size="12.00">uint64 </text>
<polygon fill="#f0f0ff" stroke="none" points="345,-373 345,-392 413,-392 413,-373 345,-373"/>
<polygon fill="none" stroke="black" points="345,-373 345,-392 413,-392 413,-373 345,-373"/>
<text text-anchor="start" x="348" y="-379.4" font-family="Helvetica,sans-Serif" font-size="12.00">Sym </text>
<polygon fill="#f0f0ff" stroke="none" points="413,-373 413,-392 481,-392 481,-373 413,-373"/>
<polygon fill="none" stroke="black" points="413,-373 413,-392 481,-392 481,-373 413,-373"/>
<text text-anchor="start" x="416" y="-379.4" font-family="Helvetica,sans-Serif" font-size="12.00">*Sym </text>
<polygon fill="#f0f0ff" stroke="none" points="345,-354 345,-373 413,-373 413,-354 345,-354"/>
<polygon fill="none" stroke="black" points="345,-354 345,-373 413,-373 413,-354 345,-354"/>
<text text-anchor="start" x="348" y="-360.4" font-family="Helvetica,sans-Serif" font-size="12.00">End </text>
<polygon fill="#f0f0ff" stroke="none" points="413,-354 413,-373 481,-373 481,-354 413,-354"/>
<polygon fill="none" stroke="black" points="413,-354 413,-373 481,-373 481,-354 413,-354"/>
<text text-anchor="start" x="416" y="-360.4" font-family="Helvetica,sans-Serif" font-size="12.00">uint64 </text>
<polygon fill="#f0f0ff" stroke="none" points="345,-335 345,-354 413,-354 413,-335 345,-335"/>
<polygon fill="none" stroke="black" points="345,-335 345,-354 413,-354 413,-335 345,-335"/>
<text text-anchor="start" x="348" y="-341.4" font-family="Helvetica,sans-Serif" font-size="12.00">Params </text>
<polygon fill="#f0f0ff" stroke="none" points="413,-335 413,-354 481,-354 481,-335 413,-335"/>
<polygon fill="none" stroke="black" points="413,-335 413,-354 481,-354 481,-335 413,-335"/>
<text text-anchor="start" x="416" y="-341.4" font-family="Helvetica,sans-Serif" font-size="12.00">[]*Sym </text>
<polygon fill="#f0f0ff" stroke="none" points="345,-316 345,-335 413,-335 413,-316 345,-316"/>
<polygon fill="none" stroke="black" points="345,-316 345,-335 413,-335 413,-316 345,-316"/>
<text text-anchor="start" x="348" y="-322.4" font-family="Helvetica,sans-Serif" font-size="12.00">Locals </text>
<polygon fill="#f0f0ff" stroke="none" points="413,-316 413,-335 481,-335 481,-316 413,-316"/>
<polygon fill="none" stroke="black" points="413,-316 413,-335 481,-335 481,-316 413,-316"/>
<text text-anchor="start" x="416" y="-322.4" font-family="Helvetica,sans-Serif" font-size="12.00">[]*Sym </text>
<polygon fill="#f0f0ff" stroke="none" points="345,-297 345,-316 413,-316 413,-297 345,-297"/>
<polygon fill="none" stroke="black" points="345,-297 345,-316 413,-316 413,-297 345,-297"/>
<text text-anchor="start" x="348" y="-303.4" font-family="Helvetica,sans-Serif" font-size="12.00">FrameSize </text>
<polygon fill="#f0f0ff" stroke="none" points="413,-297 413,-316 481,-316 481,-297 413,-297"/>
<polygon fill="none" stroke="black" points="413,-297 413,-316 481,-316 481,-297 413,-297"/>
<text text-anchor="start" x="416" y="-303.4" font-family="Helvetica,sans-Serif" font-size="12.00">int </text>
<polygon fill="#f0f0ff" stroke="none" points="345,-278 345,-297 413,-297 413,-278 345,-278"/>
<polygon fill="none" stroke="black" points="345,-278 345,-297 413,-297 413,-278 345,-278"/>
<text text-anchor="start" x="348" y="-284.4" font-family="Helvetica,sans-Serif" font-size="12.00">LineTable </text>
<polygon fill="#f0f0ff" stroke="none" points="413,-278 413,-297 481,-297 481,-278 413,-278"/>
<polygon fill="none" stroke="black" points="413,-278 413,-297 481,-297 481,-278 413,-278"/>
<text text-anchor="start" x="416" y="-284.4" font-family="Helvetica,sans-Serif" font-size="12.00">*LineTable </text>
<polygon fill="#f0f0ff" stroke="none" points="345,-259 345,-278 413,-278 413,-259 345,-259"/>
<polygon fill="none" stroke="black" points="345,-259 345,-278 413,-278 413,-259 345,-259"/>
<text text-anchor="start" x="348" y="-265.4" font-family="Helvetica,sans-Serif" font-size="12.00">Obj </text>
<polygon fill="#f0f0ff" stroke="none" points="413,-259 413,-278 481,-278 481,-259 413,-259"/>
<polygon fill="none" stroke="black" points="413,-259 413,-278 481,-278 481,-259 413,-259"/>
<text text-anchor="start" x="416" y="-265.4" font-family="Helvetica,sans-Serif" font-size="12.00">*Obj </text>
</a>
</g>
</g>
<!-- debug/gosym.Table&#45;&gt;debug/gosym.Func -->
<g id="edge8" class="edge"><title>debug/gosym.Table:Funcs&#45;&gt;debug/gosym.Func</title>
<path fill="none" stroke="black" d="M156.5,-311C187.904,-311 261.674,-321.22 321.915,-330.454"/>
<polygon fill="black" stroke="black" points="321.278,-335.668 336.905,-332.773 322.884,-325.291 321.278,-335.668"/>
</g>
<!-- debug/gosym.Sym -->
<g id="node5" class="node"><title>debug/gosym.Sym</title>
<g id="a_node5"><a xlink:title="debug/gosym.Sym">
<polygon fill="#ffffff" stroke="none" points="589.5,-331 589.5,-445 684.5,-445 684.5,-331 589.5,-331"/>
<polygon fill="#e0e0ff" stroke="none" points="590,-426 590,-445 685,-445 685,-426 590,-426"/>
<polygon fill="none" stroke="black" points="590,-426 590,-445 685,-445 685,-426 590,-426"/>
<text text-anchor="start" x="604.5" y="-432.4" font-family="Helvetica,sans-Serif" font-size="12.00">gosym.Sym </text>
<polygon fill="#f0f0ff" stroke="none" points="590,-407 590,-426 642,-426 642,-407 590,-407"/>
<polygon fill="none" stroke="black" points="590,-407 590,-426 642,-426 642,-407 590,-407"/>
<text text-anchor="start" x="593" y="-413.4" font-family="Helvetica,sans-Serif" font-size="12.00">Value </text>
<polygon fill="#f0f0ff" stroke="none" points="642,-407 642,-426 685,-426 685,-407 642,-407"/>
<polygon fill="none" stroke="black" points="642,-407 642,-426 685,-426 685,-407 642,-407"/>
<text text-anchor="start" x="645" y="-413.4" font-family="Helvetica,sans-Serif" font-size="12.00">uint64 </text>
<polygon fill="#f0f0ff" stroke="none" points="590,-388 590,-407 642,-407 642,-388 590,-388"/>
<polygon fill="none" stroke="black" points="590,-388 590,-407 642,-407 642,-388 590,-388"/>
<text text-anchor="start" x="593" y="-394.4" font-family="Helvetica,sans-Serif" font-size="12.00">Type </text>
<polygon fill="#f0f0ff" stroke="none" points="642,-388 642,-407 685,-407 685,-388 642,-388"/>
<polygon fill="none" stroke="black" points="642,-388 642,-407 685,-407 685,-388 642,-388"/>
<text text-anchor="start" x="645" y="-394.4" font-family="Helvetica,sans-Serif" font-size="12.00">byte </text>
<polygon fill="#f0f0ff" stroke="none" points="590,-369 590,-388 642,-388 642,-369 590,-369"/>
<polygon fill="none" stroke="black" points="590,-369 590,-388 642,-388 642,-369 590,-369"/>
<text text-anchor="start" x="593" y="-375.4" font-family="Helvetica,sans-Serif" font-size="12.00">Name </text>
<polygon fill="#f0f0ff" stroke="none" points="642,-369 642,-388 685,-388 685,-369 642,-369"/>
<polygon fill="none" stroke="black" points="642,-369 642,-388 685,-388 685,-369 642,-369"/>
<text text-anchor="start" x="645" y="-375.4" font-family="Helvetica,sans-Serif" font-size="12.00">string </text>
<polygon fill="#f0f0ff" stroke="none" points="590,-350 590,-369 642,-369 642,-350 590,-350"/>
<polygon fill="none" stroke="black" points="590,-350 590,-369 642,-369 642,-350 590,-350"/>
<text text-anchor="start" x="593" y="-356.4" font-family="Helvetica,sans-Serif" font-size="12.00">GoType </text>
<polygon fill="#f0f0ff" stroke="none" points="642,-350 642,-369 685,-369 685,-350 642,-350"/>
<polygon fill="none" stroke="black" points="642,-350 642,-369 685,-369 685,-350 642,-350"/>
<text text-anchor="start" x="645" y="-356.4" font-family="Helvetica,sans-Serif" font-size="12.00">uint64 </text>
<polygon fill="#f0f0ff" stroke="none" points="590,-331 590,-350 642,-350 642,-331 590,-331"/>
<polygon fill="none" stroke="black" points="590,-331 590,-350 642,-350 642,-331 590,-331"/>
<text text-anchor="start" x="593" y="-337.4" font-family="Helvetica,sans-Serif" font-size="12.00">Func </text>
<polygon fill="#f0f0ff" stroke="none" points="642,-331 642,-350 685,-350 685,-331 642,-331"/>
<polygon fill="none" stroke="black" points="642,-331 642,-350 685,-350 685,-331 642,-331"/>
<text text-anchor="start" x="645" y="-337.4" font-family="Helvetica,sans-Serif" font-size="12.00">*Func </text>
</a>
</g>
</g>
<!-- debug/gosym.Table&#45;&gt;debug/gosym.Sym -->
<g id="edge7" class="edge"><title>debug/gosym.Table:Syms&#45;&gt;debug/gosym.Sym</title>
<path fill="none" stroke="black" d="M156.5,-330C251.383,-330 245.856,-417.627 337,-444 401.894,-462.777 422.56,-456.227 489,-444 515.258,-439.168 542.899,-429.859 567.038,-420.198"/>
<polygon fill="black" stroke="black" points="569.339,-424.928 581.188,-414.338 565.321,-415.227 569.339,-424.928"/>
</g>
<!-- debug/gosym.Obj&#45;&gt;debug/gosym.Func -->
<g id="edge12" class="edge"><title>debug/gosym.Obj:Funcs&#45;&gt;debug/gosym.Func</title>
<path fill="none" stroke="black" d="M294,-271C303.876,-271 313.603,-272.883 322.979,-276.049"/>
<polygon fill="black" stroke="black" points="321.041,-280.929 336.912,-281.76 325.024,-271.213 321.041,-280.929"/>
</g>
<!-- debug/gosym.Obj&#45;&gt;debug/gosym.Sym -->
<g id="edge13" class="edge"><title>debug/gosym.Obj:Paths&#45;&gt;debug/gosym.Sym</title>
<path fill="none" stroke="black" d="M294,-252C313.296,-252 317.75,-247.337 337,-246 404.393,-241.321 431.534,-210.484 489,-246 519.434,-264.809 500.984,-291.481 525,-318 537.306,-331.589 552.843,-343.551 568.364,-353.567"/>
<polygon fill="black" stroke="black" points="565.795,-358.15 581.326,-361.515 571.283,-349.199 565.795,-358.15"/>
</g>
<!-- debug/gosym.Func&#45;&gt;debug/gosym.LineTable -->
<g id="edge4" class="edge"><title>debug/gosym.Func:LineTable&#45;&gt;debug/gosym.LineTable</title>
<path fill="none" stroke="black" d="M482,-287C491.745,-287 501.27,-285.504 510.499,-282.852"/>
<polygon fill="black" stroke="black" points="512.375,-287.757 524.748,-277.783 508.856,-277.864 512.375,-287.757"/>
</g>
<!-- debug/gosym.Func&#45;&gt;debug/gosym.Obj -->
<g id="edge5" class="edge"><title>debug/gosym.Func:Obj&#45;&gt;debug/gosym.Obj</title>
<path fill="none" stroke="black" d="M447,-258C447,-231.186 373.092,-242.582 316.045,-255.373"/>
<polygon fill="black" stroke="black" points="314.648,-250.307 301.22,-258.809 317.018,-260.536 314.648,-250.307"/>
</g>
<!-- debug/gosym.Func&#45;&gt;debug/gosym.Sym -->
<g id="edge1" class="edge"><title>debug/gosym.Func:Sym&#45;&gt;debug/gosym.Sym</title>
<path fill="none" stroke="black" d="M482,-383C509.616,-383 540.004,-383.813 566.436,-384.784"/>
<polygon fill="black" stroke="black" points="566.299,-390.032 581.491,-385.368 566.706,-379.54 566.299,-390.032"/>
</g>
<!-- debug/gosym.Func&#45;&gt;debug/gosym.Sym -->
<g id="edge2" class="edge"><title>debug/gosym.Func:Params&#45;&gt;debug/gosym.Sym</title>
<path fill="none" stroke="black" d="M482,-344C510.49,-344 540.844,-351.048 567.006,-359.503"/>
<polygon fill="black" stroke="black" points="565.582,-364.565 581.474,-364.454 568.981,-354.63 565.582,-364.565"/>
</g>
<!-- debug/gosym.Func&#45;&gt;debug/gosym.Sym -->
<g id="edge3" class="edge"><title>debug/gosym.Func:Locals&#45;&gt;debug/gosym.Sym</title>
<path fill="none" stroke="black" d="M482,-325C511.506,-325 541.983,-335.029 567.958,-347.085"/>
<polygon fill="black" stroke="black" points="565.718,-351.833 581.496,-353.735 570.347,-342.409 565.718,-351.833"/>
</g>
<!-- debug/gosym.Sym&#45;&gt;debug/gosym.Func -->
<g id="edge6" class="edge"><title>debug/gosym.Sym:Func&#45;&gt;debug/gosym.Func</title>
<path fill="none" stroke="black" d="M664,-330C664,-313.458 575.661,-321.883 504.007,-331.437"/>
<polygon fill="black" stroke="black" points="503.16,-326.254 489.008,-333.484 504.58,-336.657 503.16,-326.254"/>
</g>
</g>
</svg>
