<?xml version="1.0" encoding="UTF-8" standalone="no"?>
<!DOCTYPE svg PUBLIC "-//W3C//DTD SVG 1.1//EN"
 "http://www.w3.org/Graphics/SVG/1.1/DTD/svg11.dtd">
<!-- Generated by graphviz version 2.38.0 (20140413.2041)
 -->
<!-- Title: structDiagram Pages: 1 -->
<svg width="689pt" height="321pt"
 viewBox="0.00 0.00 689.00 321.00" xmlns="http://www.w3.org/2000/svg" xmlns:xlink="http://www.w3.org/1999/xlink">
<g id="graph0" class="graph" transform="scale(1 1) rotate(0) translate(4 317)">
<title>structDiagram</title>
<g id="a_graph0"><a xlink:href="http://www.github.com/paulcager/typegraph" xlink:title="\nGenerated by typegraph: time">
<polygon fill="#f8f8f8" stroke="none" points="-4,4 -4,-317 685,-317 685,4 -4,4"/>
<text text-anchor="middle" x="86.5" y="-7.4" font-family="Helvetica,sans-Serif" font-size="12.00">Generated by typegraph: time</text>
</a>
</g>
<!-- time.Location -->
<g id="node1" class="node"><title>time.Location</title>
<g id="a_node1"><a xlink:title="time.Location">
<polygon fill="#ffffff" stroke="none" points="386,-141 386,-274 529,-274 529,-141 386,-141"/>
<polygon fill="#e0e0ff" stroke="none" points="386.5,-254.5 386.5,-273.5 529.5,-273.5 529.5,-254.5 386.5,-254.5"/>
<polygon fill="none" stroke="black" points="386.5,-254.5 386.5,-273.5 529.5,-273.5 529.5,-254.5 386.5,-254.5"/>
<text text-anchor="start" x="420.5" y="-260.9" font-family="Helvetica,sans-Serif" font-size="12.00">time.Location </text>
<polygon fill="#f0f0ff" stroke="none" points="386.5,-235.5 386.5,-254.5 456.5,-254.5 456.5,-235.5 386.5,-235.5"/>
<polygon fill="none" stroke="black" points="386.5,-235.5 386.5,-254.5 456.5,-254.5 456.5,-235.5 386.5,-235.5"/>
<text text-anchor="start" x="389.5" y="-241.9" font-family="Helvetica,sans-Serif" font-size="12.00">name </text>
<polygon fill="#f0f0ff" stroke="none" points="456.5,-235.5 456.5,-254.5 529.5,-254.5 529.5,-235.5 456.5,-235.5"/>
<polygon fill="none" stroke="black" points="456.5,-235.5 456.5,-254.5 529.5,-254.5 529.5,-235.5 456.5,-235.5"/>
<text text-anchor="start" x="459.5" y="-241.9" font-family="Helvetica,sans-Serif" font-size="12.00">string </text>
<polygon fill="#f0f0ff" stroke="none" points="386.5,-216.5 386.5,-235.5 456.5,-235.5 456.5,-216.5 386.5,-216.5"/>
<polygon fill="none" stroke="black" points="386.5,-216.5 386.5,-235.5 456.5,-235.5 456.5,-216.5 386.5,-216.5"/>
<text text-anchor="start" x="389.5" y="-222.9" font-family="Helvetica,sans-Serif" font-size="12.00">zone </text>
<polygon fill="#f0f0ff" stroke="none" points="456.5,-216.5 456.5,-235.5 529.5,-235.5 529.5,-216.5 456.5,-216.5"/>
<polygon fill="none" stroke="black" points="456.5,-216.5 456.5,-235.5 529.5,-235.5 529.5,-216.5 456.5,-216.5"/>
<text text-anchor="start" x="459.5" y="-222.9" font-family="Helvetica,sans-Serif" font-size="12.00">[]zone </text>
<polygon fill="#f0f0ff" stroke="none" points="386.5,-197.5 386.5,-216.5 456.5,-216.5 456.5,-197.5 386.5,-197.5"/>
<polygon fill="none" stroke="black" points="386.5,-197.5 386.5,-216.5 456.5,-216.5 456.5,-197.5 386.5,-197.5"/>
<text text-anchor="start" x="389.5" y="-203.9" font-family="Helvetica,sans-Serif" font-size="12.00">tx </text>
<polygon fill="#f0f0ff" stroke="none" points="456.5,-197.5 456.5,-216.5 529.5,-216.5 529.5,-197.5 456.5,-197.5"/>
<polygon fill="none" stroke="black" points="456.5,-197.5 456.5,-216.5 529.5,-216.5 529.5,-197.5 456.5,-197.5"/>
<text text-anchor="start" x="459.5" y="-203.9" font-family="Helvetica,sans-Serif" font-size="12.00">[]zoneTrans </text>
<polygon fill="#f0f0ff" stroke="none" points="386.5,-178.5 386.5,-197.5 456.5,-197.5 456.5,-178.5 386.5,-178.5"/>
<polygon fill="none" stroke="black" points="386.5,-178.5 386.5,-197.5 456.5,-197.5 456.5,-178.5 386.5,-178.5"/>
<text text-anchor="start" x="389.5" y="-184.9" font-family="Helvetica,sans-Serif" font-size="12.00">cacheStart </text>
<polygon fill="#f0f0ff" stroke="none" points="456.5,-178.5 456.5,-197.5 529.5,-197.5 529.5,-178.5 456.5,-178.5"/>
<polygon fill="none" stroke="black" points="456.5,-178.5 456.5,-197.5 529.5,-197.5 529.5,-178.5 456.5,-178.5"/>
<text text-anchor="start" x="459.5" y="-184.9" font-family="Helvetica,sans-Serif" font-size="12.00">int64 </text>
<polygon fill="#f0f0ff" stroke="none" points="386.5,-159.5 386.5,-178.5 456.5,-178.5 456.5,-159.5 386.5,-159.5"/>
<polygon fill="none" stroke="black" points="386.5,-159.5 386.5,-178.5 456.5,-178.5 456.5,-159.5 386.5,-159.5"/>
<text text-anchor="start" x="389.5" y="-165.9" font-family="Helvetica,sans-Serif" font-size="12.00">cacheEnd </text>
<polygon fill="#f0f0ff" stroke="none" points="456.5,-159.5 456.5,-178.5 529.5,-178.5 529.5,-159.5 456.5,-159.5"/>
<polygon fill="none" stroke="black" points="456.5,-159.5 456.5,-178.5 529.5,-178.5 529.5,-159.5 456.5,-159.5"/>
<text text-anchor="start" x="459.5" y="-165.9" font-family="Helvetica,sans-Serif" font-size="12.00">int64 </text>
<polygon fill="#f0f0ff" stroke="none" points="386.5,-140.5 386.5,-159.5 456.5,-159.5 456.5,-140.5 386.5,-140.5"/>
<polygon fill="none" stroke="black" points="386.5,-140.5 386.5,-159.5 456.5,-159.5 456.5,-140.5 386.5,-140.5"/>
<text text-anchor="start" x="389.5" y="-146.9" font-family="Helvetica,sans-Serif" font-size="12.00">cacheZone </text>
<polygon fill="#f0f0ff" stroke="none" points="456.5,-140.5 456.5,-159.5 529.5,-159.5 529.5,-140.5 456.5,-140.5"/>
<polygon fill="none" stroke="black" points="456.5,-140.5 456.5,-159.5 529.5,-159.5 529.5,-140.5 456.5,-140.5"/>
<text text-anchor="start" x="459.5" y="-146.9" font-family="Helvetica,sans-Serif" font-size="12.00">*zone </text>
</a>
</g>
</g>
<!-- time.zone -->
<g id="node2" class="node"><title>time.zone</title>
<g id="a_node2"><a xlink:title="time.zone">
<polygon fill="#ffffff" stroke="none" points="586,-111.5 586,-187.5 668,-187.5 668,-111.5 586,-111.5"/>
<polygon fill="#e0e0ff" stroke="none" points="586,-168.5 586,-187.5 668,-187.5 668,-168.5 586,-168.5"/>
<polygon fill="none" stroke="black" points="586,-168.5 586,-187.5 668,-187.5 668,-168.5 586,-168.5"/>
<text text-anchor="start" x="599.5" y="-174.9" font-family="Helvetica,sans-Serif" font-size="12.00">time.zone </text>
<polygon fill="#f0f0ff" stroke="none" points="586,-149.5 586,-168.5 629,-168.5 629,-149.5 586,-149.5"/>
<polygon fill="none" stroke="black" points="586,-149.5 586,-168.5 629,-168.5 629,-149.5 586,-149.5"/>
<text text-anchor="start" x="589" y="-155.9" font-family="Helvetica,sans-Serif" font-size="12.00">name </text>
<polygon fill="#f0f0ff" stroke="none" points="629,-149.5 629,-168.5 668,-168.5 668,-149.5 629,-149.5"/>
<polygon fill="none" stroke="black" points="629,-149.5 629,-168.5 668,-168.5 668,-149.5 629,-149.5"/>
<text text-anchor="start" x="632" y="-155.9" font-family="Helvetica,sans-Serif" font-size="12.00">string </text>
<polygon fill="#f0f0ff" stroke="none" points="586,-130.5 586,-149.5 629,-149.5 629,-130.5 586,-130.5"/>
<polygon fill="none" stroke="black" points="586,-130.5 586,-149.5 629,-149.5 629,-130.5 586,-130.5"/>
<text text-anchor="start" x="589" y="-136.9" font-family="Helvetica,sans-Serif" font-size="12.00">offset </text>
<polygon fill="#f0f0ff" stroke="none" points="629,-130.5 629,-149.5 668,-149.5 668,-130.5 629,-130.5"/>
<polygon fill="none" stroke="black" points="629,-130.5 629,-149.5 668,-149.5 668,-130.5 629,-130.5"/>
<text text-anchor="start" x="632" y="-136.9" font-family="Helvetica,sans-Serif" font-size="12.00">int </text>
<polygon fill="#f0f0ff" stroke="none" points="586,-111.5 586,-130.5 629,-130.5 629,-111.5 586,-111.5"/>
<polygon fill="none" stroke="black" points="586,-111.5 586,-130.5 629,-130.5 629,-111.5 586,-111.5"/>
<text text-anchor="start" x="589" y="-117.9" font-family="Helvetica,sans-Serif" font-size="12.00">isDST </text>
<polygon fill="#f0f0ff" stroke="none" points="629,-111.5 629,-130.5 668,-130.5 668,-111.5 629,-111.5"/>
<polygon fill="none" stroke="black" points="629,-111.5 629,-130.5 668,-130.5 668,-111.5 629,-111.5"/>
<text text-anchor="start" x="632" y="-117.9" font-family="Helvetica,sans-Serif" font-size="12.00">bool </text>
</a>
</g>
</g>
<!-- time.Location&#45;&gt;time.zone -->
<g id="edge1" class="edge"><title>time.Location:zone&#45;&gt;time.zone</title>
<path fill="none" stroke="black" d="M530.5,-226.5C535.691,-226.5 550.781,-215.331 567.476,-201.5"/>
<polygon fill="black" stroke="black" points="571.119,-205.296 579.189,-191.605 564.343,-197.275 571.119,-205.296"/>
</g>
<!-- time.Location&#45;&gt;time.zone -->
<g id="edge3" class="edge"><title>time.Location:cacheZone&#45;&gt;time.zone</title>
<path fill="none" stroke="black" d="M530.5,-149.5C540.86,-149.5 551.852,-149.5 562.55,-149.5"/>
<polygon fill="black" stroke="black" points="562.907,-154.75 577.907,-149.5 562.907,-144.25 562.907,-154.75"/>
</g>
<!-- time.zoneTrans -->
<g id="node4" class="node"><title>time.zoneTrans</title>
<g id="a_node4"><a xlink:title="time.zoneTrans">
<polygon fill="#ffffff" stroke="none" points="581,-214 581,-309 673,-309 673,-214 581,-214"/>
<polygon fill="#e0e0ff" stroke="none" points="581,-289.5 581,-308.5 673,-308.5 673,-289.5 581,-289.5"/>
<polygon fill="none" stroke="black" points="581,-289.5 581,-308.5 673,-308.5 673,-289.5 581,-289.5"/>
<text text-anchor="start" x="584" y="-295.9" font-family="Helvetica,sans-Serif" font-size="12.00">time.zoneTrans </text>
<polygon fill="#f0f0ff" stroke="none" points="581,-270.5 581,-289.5 628,-289.5 628,-270.5 581,-270.5"/>
<polygon fill="none" stroke="black" points="581,-270.5 581,-289.5 628,-289.5 628,-270.5 581,-270.5"/>
<text text-anchor="start" x="584" y="-276.9" font-family="Helvetica,sans-Serif" font-size="12.00">when </text>
<polygon fill="#f0f0ff" stroke="none" points="628,-270.5 628,-289.5 673,-289.5 673,-270.5 628,-270.5"/>
<polygon fill="none" stroke="black" points="628,-270.5 628,-289.5 673,-289.5 673,-270.5 628,-270.5"/>
<text text-anchor="start" x="631" y="-276.9" font-family="Helvetica,sans-Serif" font-size="12.00">int64 </text>
<polygon fill="#f0f0ff" stroke="none" points="581,-251.5 581,-270.5 628,-270.5 628,-251.5 581,-251.5"/>
<polygon fill="none" stroke="black" points="581,-251.5 581,-270.5 628,-270.5 628,-251.5 581,-251.5"/>
<text text-anchor="start" x="584" y="-257.9" font-family="Helvetica,sans-Serif" font-size="12.00">index </text>
<polygon fill="#f0f0ff" stroke="none" points="628,-251.5 628,-270.5 673,-270.5 673,-251.5 628,-251.5"/>
<polygon fill="none" stroke="black" points="628,-251.5 628,-270.5 673,-270.5 673,-251.5 628,-251.5"/>
<text text-anchor="start" x="631" y="-257.9" font-family="Helvetica,sans-Serif" font-size="12.00">uint8 </text>
<polygon fill="#f0f0ff" stroke="none" points="581,-232.5 581,-251.5 628,-251.5 628,-232.5 581,-232.5"/>
<polygon fill="none" stroke="black" points="581,-232.5 581,-251.5 628,-251.5 628,-232.5 581,-232.5"/>
<text text-anchor="start" x="584" y="-238.9" font-family="Helvetica,sans-Serif" font-size="12.00">isstd </text>
<polygon fill="#f0f0ff" stroke="none" points="628,-232.5 628,-251.5 673,-251.5 673,-232.5 628,-232.5"/>
<polygon fill="none" stroke="black" points="628,-232.5 628,-251.5 673,-251.5 673,-232.5 628,-232.5"/>
<text text-anchor="start" x="631" y="-238.9" font-family="Helvetica,sans-Serif" font-size="12.00">bool </text>
<polygon fill="#f0f0ff" stroke="none" points="581,-213.5 581,-232.5 628,-232.5 628,-213.5 581,-213.5"/>
<polygon fill="none" stroke="black" points="581,-213.5 581,-232.5 628,-232.5 628,-213.5 581,-213.5"/>
<text text-anchor="start" x="584" y="-219.9" font-family="Helvetica,sans-Serif" font-size="12.00">isutc </text>
<polygon fill="#f0f0ff" stroke="none" points="628,-213.5 628,-232.5 673,-232.5 673,-213.5 628,-213.5"/>
<polygon fill="none" stroke="black" points="628,-213.5 628,-232.5 673,-232.5 673,-213.5 628,-213.5"/>
<text text-anchor="start" x="631" y="-219.9" font-family="Helvetica,sans-Serif" font-size="12.00">bool </text>
</a>
</g>
</g>
<!-- time.Location&#45;&gt;time.zoneTrans -->
<g id="edge2" class="edge"><title>time.Location:tx&#45;&gt;time.zoneTrans</title>
<path fill="none" stroke="black" d="M530.5,-206.5C540.168,-206.5 549.74,-208.643 558.878,-212.083"/>
<polygon fill="black" stroke="black" points="557.003,-216.998 572.83,-218.434 561.353,-207.441 557.003,-216.998"/>
</g>
<!-- time.Ticker -->
<g id="node3" class="node"><title>time.Ticker</title>
<g id="a_node3"><a xlink:title="time.Ticker">
<polygon fill="#ffffff" stroke="none" points="8,-201 8,-258 107,-258 107,-201 8,-201"/>
<polygon fill="#e0e0ff" stroke="none" points="8.5,-238.5 8.5,-257.5 107.5,-257.5 107.5,-238.5 8.5,-238.5"/>
<polygon fill="none" stroke="black" points="8.5,-238.5 8.5,-257.5 107.5,-257.5 107.5,-238.5 8.5,-238.5"/>
<text text-anchor="start" x="27" y="-244.9" font-family="Helvetica,sans-Serif" font-size="12.00">time.Ticker </text>
<polygon fill="#f0f0ff" stroke="none" points="8.5,-219.5 8.5,-238.5 27.5,-238.5 27.5,-219.5 8.5,-219.5"/>
<polygon fill="none" stroke="black" points="8.5,-219.5 8.5,-238.5 27.5,-238.5 27.5,-219.5 8.5,-219.5"/>
<text text-anchor="start" x="11.5" y="-225.9" font-family="Helvetica,sans-Serif" font-size="12.00">C </text>
<polygon fill="#f0f0ff" stroke="none" points="27.5,-219.5 27.5,-238.5 107.5,-238.5 107.5,-219.5 27.5,-219.5"/>
<polygon fill="none" stroke="black" points="27.5,-219.5 27.5,-238.5 107.5,-238.5 107.5,-219.5 27.5,-219.5"/>
<text text-anchor="start" x="30.5" y="-225.9" font-family="Helvetica,sans-Serif" font-size="12.00">&lt;&#45;chan Time </text>
<polygon fill="#f0f0ff" stroke="none" points="8.5,-200.5 8.5,-219.5 27.5,-219.5 27.5,-200.5 8.5,-200.5"/>
<polygon fill="none" stroke="black" points="8.5,-200.5 8.5,-219.5 27.5,-219.5 27.5,-200.5 8.5,-200.5"/>
<text text-anchor="start" x="11.5" y="-206.9" font-family="Helvetica,sans-Serif" font-size="12.00">r </text>
<polygon fill="#f0f0ff" stroke="none" points="27.5,-200.5 27.5,-219.5 107.5,-219.5 107.5,-200.5 27.5,-200.5"/>
<polygon fill="none" stroke="black" points="27.5,-200.5 27.5,-219.5 107.5,-219.5 107.5,-200.5 27.5,-200.5"/>
<text text-anchor="start" x="30.5" y="-206.9" font-family="Helvetica,sans-Serif" font-size="12.00">runtimeTimer </text>
</a>
</g>
</g>
<!-- time.Time -->
<g id="node6" class="node"><title>time.Time</title>
<g id="a_node6"><a xlink:title="time.Time">
<polygon fill="#ffffff" stroke="none" points="201,-198.5 201,-274.5 292,-274.5 292,-198.5 201,-198.5"/>
<polygon fill="#e0e0ff" stroke="none" points="201.5,-255.5 201.5,-274.5 292.5,-274.5 292.5,-255.5 201.5,-255.5"/>
<polygon fill="none" stroke="black" points="201.5,-255.5 201.5,-274.5 292.5,-274.5 292.5,-255.5 201.5,-255.5"/>
<text text-anchor="start" x="219" y="-261.9" font-family="Helvetica,sans-Serif" font-size="12.00">time.Time </text>
<polygon fill="#f0f0ff" stroke="none" points="201.5,-236.5 201.5,-255.5 232.5,-255.5 232.5,-236.5 201.5,-236.5"/>
<polygon fill="none" stroke="black" points="201.5,-236.5 201.5,-255.5 232.5,-255.5 232.5,-236.5 201.5,-236.5"/>
<text text-anchor="start" x="204.5" y="-242.9" font-family="Helvetica,sans-Serif" font-size="12.00">wall </text>
<polygon fill="#f0f0ff" stroke="none" points="232.5,-236.5 232.5,-255.5 292.5,-255.5 292.5,-236.5 232.5,-236.5"/>
<polygon fill="none" stroke="black" points="232.5,-236.5 232.5,-255.5 292.5,-255.5 292.5,-236.5 232.5,-236.5"/>
<text text-anchor="start" x="235.5" y="-242.9" font-family="Helvetica,sans-Serif" font-size="12.00">uint64 </text>
<polygon fill="#f0f0ff" stroke="none" points="201.5,-217.5 201.5,-236.5 232.5,-236.5 232.5,-217.5 201.5,-217.5"/>
<polygon fill="none" stroke="black" points="201.5,-217.5 201.5,-236.5 232.5,-236.5 232.5,-217.5 201.5,-217.5"/>
<text text-anchor="start" x="204.5" y="-223.9" font-family="Helvetica,sans-Serif" font-size="12.00">ext </text>
<polygon fill="#f0f0ff" stroke="none" points="232.5,-217.5 232.5,-236.5 292.5,-236.5 292.5,-217.5 232.5,-217.5"/>
<polygon fill="none" stroke="black" points="232.5,-217.5 232.5,-236.5 292.5,-236.5 292.5,-217.5 232.5,-217.5"/>
<text text-anchor="start" x="235.5" y="-223.9" font-family="Helvetica,sans-Serif" font-size="12.00">int64 </text>
<polygon fill="#f0f0ff" stroke="none" points="201.5,-198.5 201.5,-217.5 232.5,-217.5 232.5,-198.5 201.5,-198.5"/>
<polygon fill="none" stroke="black" points="201.5,-198.5 201.5,-217.5 232.5,-217.5 232.5,-198.5 201.5,-198.5"/>
<text text-anchor="start" x="204.5" y="-204.9" font-family="Helvetica,sans-Serif" font-size="12.00">loc </text>
<polygon fill="#f0f0ff" stroke="none" points="232.5,-198.5 232.5,-217.5 292.5,-217.5 292.5,-198.5 232.5,-198.5"/>
<polygon fill="none" stroke="black" points="232.5,-198.5 232.5,-217.5 292.5,-217.5 292.5,-198.5 232.5,-198.5"/>
<text text-anchor="start" x="235.5" y="-204.9" font-family="Helvetica,sans-Serif" font-size="12.00">*Location </text>
</a>
</g>
</g>
<!-- time.Ticker&#45;&gt;time.Time -->
<g id="edge4" class="edge"><title>time.Ticker:C&#45;&gt;time.Time</title>
<path fill="none" stroke="black" d="M108.5,-228.5C131.04,-228.5 155.631,-229.593 177.678,-230.97"/>
<polygon fill="black" stroke="black" points="177.529,-236.222 192.846,-231.986 178.23,-225.745 177.529,-236.222"/>
</g>
<!-- time.runtimeTimer -->
<g id="node7" class="node"><title>time.runtimeTimer</title>
<g id="a_node7"><a xlink:title="time.runtimeTimer">
<polygon fill="#ffffff" stroke="none" points="159,-39 159,-172 334,-172 334,-39 159,-39"/>
<polygon fill="#e0e0ff" stroke="none" points="159.5,-152.5 159.5,-171.5 334.5,-171.5 334.5,-152.5 159.5,-152.5"/>
<polygon fill="none" stroke="black" points="159.5,-152.5 159.5,-171.5 334.5,-171.5 334.5,-152.5 159.5,-152.5"/>
<text text-anchor="start" x="197" y="-158.9" font-family="Helvetica,sans-Serif" font-size="12.00">time.runtimeTimer </text>
<polygon fill="#f0f0ff" stroke="none" points="159.5,-133.5 159.5,-152.5 202.5,-152.5 202.5,-133.5 159.5,-133.5"/>
<polygon fill="none" stroke="black" points="159.5,-133.5 159.5,-152.5 202.5,-152.5 202.5,-133.5 159.5,-133.5"/>
<text text-anchor="start" x="162.5" y="-139.9" font-family="Helvetica,sans-Serif" font-size="12.00">i </text>
<polygon fill="#f0f0ff" stroke="none" points="202.5,-133.5 202.5,-152.5 334.5,-152.5 334.5,-133.5 202.5,-133.5"/>
<polygon fill="none" stroke="black" points="202.5,-133.5 202.5,-152.5 334.5,-152.5 334.5,-133.5 202.5,-133.5"/>
<text text-anchor="start" x="205.5" y="-139.9" font-family="Helvetica,sans-Serif" font-size="12.00">int </text>
<polygon fill="#f0f0ff" stroke="none" points="159.5,-114.5 159.5,-133.5 202.5,-133.5 202.5,-114.5 159.5,-114.5"/>
<polygon fill="none" stroke="black" points="159.5,-114.5 159.5,-133.5 202.5,-133.5 202.5,-114.5 159.5,-114.5"/>
<text text-anchor="start" x="162.5" y="-120.9" font-family="Helvetica,sans-Serif" font-size="12.00">when </text>
<polygon fill="#f0f0ff" stroke="none" points="202.5,-114.5 202.5,-133.5 334.5,-133.5 334.5,-114.5 202.5,-114.5"/>
<polygon fill="none" stroke="black" points="202.5,-114.5 202.5,-133.5 334.5,-133.5 334.5,-114.5 202.5,-114.5"/>
<text text-anchor="start" x="205.5" y="-120.9" font-family="Helvetica,sans-Serif" font-size="12.00">int64 </text>
<polygon fill="#f0f0ff" stroke="none" points="159.5,-95.5 159.5,-114.5 202.5,-114.5 202.5,-95.5 159.5,-95.5"/>
<polygon fill="none" stroke="black" points="159.5,-95.5 159.5,-114.5 202.5,-114.5 202.5,-95.5 159.5,-95.5"/>
<text text-anchor="start" x="162.5" y="-101.9" font-family="Helvetica,sans-Serif" font-size="12.00">period </text>
<polygon fill="#f0f0ff" stroke="none" points="202.5,-95.5 202.5,-114.5 334.5,-114.5 334.5,-95.5 202.5,-95.5"/>
<polygon fill="none" stroke="black" points="202.5,-95.5 202.5,-114.5 334.5,-114.5 334.5,-95.5 202.5,-95.5"/>
<text text-anchor="start" x="205.5" y="-101.9" font-family="Helvetica,sans-Serif" font-size="12.00">int64 </text>
<polygon fill="#f0f0ff" stroke="none" points="159.5,-76.5 159.5,-95.5 202.5,-95.5 202.5,-76.5 159.5,-76.5"/>
<polygon fill="none" stroke="black" points="159.5,-76.5 159.5,-95.5 202.5,-95.5 202.5,-76.5 159.5,-76.5"/>
<text text-anchor="start" x="162.5" y="-82.9" font-family="Helvetica,sans-Serif" font-size="12.00">f </text>
<polygon fill="#f0f0ff" stroke="none" points="202.5,-76.5 202.5,-95.5 334.5,-95.5 334.5,-76.5 202.5,-76.5"/>
<polygon fill="none" stroke="black" points="202.5,-76.5 202.5,-95.5 334.5,-95.5 334.5,-76.5 202.5,-76.5"/>
<text text-anchor="start" x="205.5" y="-82.9" font-family="Helvetica,sans-Serif" font-size="12.00">func(interface{}, uintptr) </text>
<polygon fill="#f0f0ff" stroke="none" points="159.5,-57.5 159.5,-76.5 202.5,-76.5 202.5,-57.5 159.5,-57.5"/>
<polygon fill="none" stroke="black" points="159.5,-57.5 159.5,-76.5 202.5,-76.5 202.5,-57.5 159.5,-57.5"/>
<text text-anchor="start" x="162.5" y="-63.9" font-family="Helvetica,sans-Serif" font-size="12.00">arg </text>
<polygon fill="#f0f0ff" stroke="none" points="202.5,-57.5 202.5,-76.5 334.5,-76.5 334.5,-57.5 202.5,-57.5"/>
<polygon fill="none" stroke="black" points="202.5,-57.5 202.5,-76.5 334.5,-76.5 334.5,-57.5 202.5,-57.5"/>
<text text-anchor="start" x="205.5" y="-63.9" font-family="Helvetica,sans-Serif" font-size="12.00">interface{} </text>
<polygon fill="#f0f0ff" stroke="none" points="159.5,-38.5 159.5,-57.5 202.5,-57.5 202.5,-38.5 159.5,-38.5"/>
<polygon fill="none" stroke="black" points="159.5,-38.5 159.5,-57.5 202.5,-57.5 202.5,-38.5 159.5,-38.5"/>
<text text-anchor="start" x="162.5" y="-44.9" font-family="Helvetica,sans-Serif" font-size="12.00">seq </text>
<polygon fill="#f0f0ff" stroke="none" points="202.5,-38.5 202.5,-57.5 334.5,-57.5 334.5,-38.5 202.5,-38.5"/>
<polygon fill="none" stroke="black" points="202.5,-38.5 202.5,-57.5 334.5,-57.5 334.5,-38.5 202.5,-38.5"/>
<text text-anchor="start" x="205.5" y="-44.9" font-family="Helvetica,sans-Serif" font-size="12.00">uintptr </text>
</a>
</g>
</g>
<!-- time.Ticker&#45;&gt;time.runtimeTimer -->
<g id="edge5" class="edge"><title>time.Ticker:r&#45;&gt;time.runtimeTimer</title>
<path fill="none" stroke="black" d="M108.5,-209.5C114.497,-209.5 130.219,-199.26 148.973,-185.207"/>
<polygon fill="black" stroke="black" points="152.257,-189.305 160.982,-176.021 145.878,-180.964 152.257,-189.305"/>
</g>
<!-- time.Timer -->
<g id="node5" class="node"><title>time.Timer</title>
<g id="a_node5"><a xlink:title="time.Timer">
<polygon fill="#ffffff" stroke="none" points="8,-111 8,-168 107,-168 107,-111 8,-111"/>
<polygon fill="#e0e0ff" stroke="none" points="8.5,-148.5 8.5,-167.5 107.5,-167.5 107.5,-148.5 8.5,-148.5"/>
<polygon fill="none" stroke="black" points="8.5,-148.5 8.5,-167.5 107.5,-167.5 107.5,-148.5 8.5,-148.5"/>
<text text-anchor="start" x="28" y="-154.9" font-family="Helvetica,sans-Serif" font-size="12.00">time.Timer </text>
<polygon fill="#f0f0ff" stroke="none" points="8.5,-129.5 8.5,-148.5 27.5,-148.5 27.5,-129.5 8.5,-129.5"/>
<polygon fill="none" stroke="black" points="8.5,-129.5 8.5,-148.5 27.5,-148.5 27.5,-129.5 8.5,-129.5"/>
<text text-anchor="start" x="11.5" y="-135.9" font-family="Helvetica,sans-Serif" font-size="12.00">C </text>
<polygon fill="#f0f0ff" stroke="none" points="27.5,-129.5 27.5,-148.5 107.5,-148.5 107.5,-129.5 27.5,-129.5"/>
<polygon fill="none" stroke="black" points="27.5,-129.5 27.5,-148.5 107.5,-148.5 107.5,-129.5 27.5,-129.5"/>
<text text-anchor="start" x="30.5" y="-135.9" font-family="Helvetica,sans-Serif" font-size="12.00">&lt;&#45;chan Time </text>
<polygon fill="#f0f0ff" stroke="none" points="8.5,-110.5 8.5,-129.5 27.5,-129.5 27.5,-110.5 8.5,-110.5"/>
<polygon fill="none" stroke="black" points="8.5,-110.5 8.5,-129.5 27.5,-129.5 27.5,-110.5 8.5,-110.5"/>
<text text-anchor="start" x="11.5" y="-116.9" font-family="Helvetica,sans-Serif" font-size="12.00">r </text>
<polygon fill="#f0f0ff" stroke="none" points="27.5,-110.5 27.5,-129.5 107.5,-129.5 107.5,-110.5 27.5,-110.5"/>
<polygon fill="none" stroke="black" points="27.5,-110.5 27.5,-129.5 107.5,-129.5 107.5,-110.5 27.5,-110.5"/>
<text text-anchor="start" x="30.5" y="-116.9" font-family="Helvetica,sans-Serif" font-size="12.00">runtimeTimer </text>
</a>
</g>
</g>
<!-- time.Timer&#45;&gt;time.Time -->
<g id="edge6" class="edge"><title>time.Timer:C&#45;&gt;time.Time</title>
<path fill="none" stroke="black" d="M108.5,-138.5C136.335,-138.5 129.079,-167.347 151,-184.5 159.72,-191.323 169.452,-197.768 179.265,-203.646"/>
<polygon fill="black" stroke="black" points="176.983,-208.389 192.607,-211.292 182.203,-199.279 176.983,-208.389"/>
</g>
<!-- time.Timer&#45;&gt;time.runtimeTimer -->
<g id="edge7" class="edge"><title>time.Timer:r&#45;&gt;time.runtimeTimer</title>
<path fill="none" stroke="black" d="M108.5,-119.5C117.414,-119.5 126.638,-119.203 135.892,-118.696"/>
<polygon fill="black" stroke="black" points="136.306,-123.93 150.926,-117.698 135.611,-113.453 136.306,-123.93"/>
</g>
<!-- time.Time&#45;&gt;time.Location -->
<g id="edge8" class="edge"><title>time.Time:loc&#45;&gt;time.Location</title>
<path fill="none" stroke="black" d="M293.5,-207.5C315.91,-207.5 340.053,-207.5 362.713,-207.5"/>
<polygon fill="black" stroke="black" points="362.738,-212.75 377.738,-207.5 362.738,-202.25 362.738,-212.75"/>
</g>
</g>
</svg>
